<svg width="752" height="317" viewBox="0 0 752 317" fill="none" xmlns="http://www.w3.org/2000/svg">
<g filter="url(#filter0_f_6_25)">
<path d="M567.757 254.333C567.757 254.333 561.641 245.056 567.56 229.762C573.479 214.468 586.615 205.696 589.49 207.158C592.365 208.62 588.363 217.869 593.634 223.099C598.905 228.328 597.496 227.288 593.859 236.621C590.223 245.983 590.843 251.747 582.077 253.968C573.31 256.189 570.717 258.157 567.757 254.333Z" fill="#4EBA6E"/>
<path d="M587.179 217.138C582.359 222.761 569.731 226.781 572.521 237.549C575.312 248.317 583.232 251.381 586.164 242.806C589.067 234.232 593.042 224.588 595.522 224.982C595.043 224.448 594.423 223.829 593.662 223.098C590.054 219.528 590.787 214.074 590.674 210.503C590.505 211.909 589.744 214.13 587.179 217.138Z" fill="#75C485"/>
<path d="M580.104 238.646C581.925 238.646 583.402 237.173 583.402 235.356C583.402 233.54 581.925 232.067 580.104 232.067C578.282 232.067 576.806 233.54 576.806 235.356C576.806 237.173 578.282 238.646 580.104 238.646Z" fill="#E6E7E8"/>
<path d="M580.104 237.549C581.318 237.549 582.302 236.567 582.302 235.356C582.302 234.145 581.318 233.163 580.104 233.163C578.889 233.163 577.905 234.145 577.905 235.356C577.905 236.567 578.889 237.549 580.104 237.549Z" fill="#414042"/>
</g>
<g filter="url(#filter1_f_6_25)">
<path d="M214.271 233.815C214.271 233.815 221.117 229.254 222.651 221.095C224.185 212.936 221.685 207.043 219.611 206.476C217.509 205.91 213.334 208.176 211.8 207.44C210.266 206.675 209.272 203.388 203.932 203.388C198.592 203.388 195.24 211.151 193.507 211.859C191.803 212.567 185.611 209.621 185.071 211.859C184.617 213.814 186.179 226.704 194.558 230.812C196.206 231.634 198.223 230.954 199.046 229.311C199.756 227.894 201.12 226.421 203.648 226.421C208.562 226.364 202.853 238.178 214.271 233.815Z" fill="#F8BE37"/>
<path d="M211.8 207.411C210.266 206.646 209.272 203.36 203.932 203.36C198.592 203.36 195.24 211.123 193.507 211.831C193.138 211.973 192.598 211.973 191.917 211.888C192.627 212.001 195.297 212.652 198.166 215.74C201.489 219.338 203.222 222.71 208.051 221.378C215.152 219.423 207.596 210.273 212.936 207.78C213.135 207.695 213.306 207.581 213.476 207.496C212.794 207.581 212.198 207.61 211.8 207.411Z" fill="#FFCE4B"/>
<path d="M205.863 217.639C207.699 217.639 209.187 216.155 209.187 214.324C209.187 212.493 207.699 211.009 205.863 211.009C204.028 211.009 202.54 212.493 202.54 214.324C202.54 216.155 204.028 217.639 205.863 217.639Z" fill="#E6E7E8"/>
<path d="M205.864 216.534C207.087 216.534 208.079 215.544 208.079 214.324C208.079 213.104 207.087 212.114 205.864 212.114C204.64 212.114 203.648 213.104 203.648 214.324C203.648 215.544 204.64 216.534 205.864 216.534Z" fill="#414042"/>
<path d="M221.259 207.95C221.486 212.738 221.344 220.925 218.021 224.835C213.164 230.529 210.096 233.419 208.59 229.906C207.085 226.364 205.409 222.2 200.438 227.526C201.205 226.874 202.256 226.393 203.676 226.393C208.59 226.393 202.853 238.178 214.3 233.815C214.3 233.815 221.145 229.254 222.679 221.095C223.787 215.061 222.708 210.273 221.259 207.95Z" fill="#F8B32B"/>
</g>
<g filter="url(#filter2_f_6_25)">
<path d="M505.416 58.0104C505.416 58.0104 506.449 52.3115 514.169 50.2805C521.889 48.2495 535.779 48.2495 537.602 53.13C539.426 58.0104 540.216 76.5014 532.283 78.5324C524.351 80.5633 522.527 69.59 519.67 67.3468C516.844 65.134 503.167 67.1649 505.416 58.0104Z" fill="#955BA5"/>
<path d="M528.727 63.8911C530.691 63.8911 532.283 62.3032 532.283 60.3445C532.283 58.3857 530.691 56.7979 528.727 56.7979C526.763 56.7979 525.171 58.3857 525.171 60.3445C525.171 62.3032 526.763 63.8911 528.727 63.8911Z" fill="#E6E7E8"/>
<path d="M528.727 62.7088C530.037 62.7088 531.098 61.6502 531.098 60.3444C531.098 59.0386 530.037 57.98 528.727 57.98C527.418 57.98 526.357 59.0386 526.357 60.3444C526.357 61.6502 527.418 62.7088 528.727 62.7088Z" fill="#414042"/>
<path d="M538.24 69.4686C535.171 74.8644 530.399 75.986 528.727 71.4087C526.478 65.3157 523.044 63.0726 514.078 62.6785C509.671 62.4966 506.905 61.3447 505.173 60.2231C505.568 66.8011 517.087 65.3157 519.67 67.3467C522.527 69.5899 524.351 80.5632 532.283 78.5323C535.627 77.6835 537.42 73.9247 538.24 69.4686Z" fill="#884B9D"/>
</g>
<path d="M145.133 155.821C145.133 155.821 145.686 152.772 149.816 151.685C153.946 150.599 161.377 150.599 162.353 153.21C163.328 155.821 163.751 165.713 159.507 166.8C155.263 167.886 154.287 162.016 152.759 160.816C151.247 159.632 143.93 160.718 145.133 155.821Z" fill="#955BA5"/>
<path d="M157.605 158.967C158.655 158.967 159.507 158.117 159.507 157.069C159.507 156.021 158.655 155.172 157.605 155.172C156.554 155.172 155.702 156.021 155.702 157.069C155.702 158.117 156.554 158.967 157.605 158.967Z" fill="#E6E7E8"/>
<path d="M157.604 158.334C158.305 158.334 158.873 157.768 158.873 157.069C158.873 156.371 158.305 155.804 157.604 155.804C156.904 155.804 156.336 156.371 156.336 157.069C156.336 157.768 156.904 158.334 157.604 158.334Z" fill="#414042"/>
<path d="M162.694 161.951C161.052 164.837 158.499 165.437 157.605 162.989C156.401 159.729 154.564 158.529 149.767 158.318C147.409 158.221 145.93 157.604 145.003 157.004C145.214 160.524 151.377 159.729 152.759 160.815C154.287 162.016 155.263 167.886 159.507 166.8C161.296 166.346 162.255 164.335 162.694 161.951Z" fill="#884B9D"/>
<g filter="url(#filter3_f_6_25)">
<path d="M110.719 242.558C107.673 244.064 101.297 246.963 94.55 248.384C92.3865 248.839 90.707 250.516 90.3369 252.704C90.0238 254.466 89.853 256.683 90.1661 258.957C90.5077 261.486 92.6143 263.39 95.1762 263.533C99.0761 263.76 105.566 264.897 110.89 269.672C112.512 271.121 114.904 271.405 116.839 270.41C119.202 269.217 122.248 267.227 124.724 264.044C126.148 262.197 126.29 259.639 124.952 257.735C123.7 255.944 122.305 253.216 122.02 249.578C121.906 248.299 121.394 247.105 120.483 246.224C119.316 245.059 117.551 243.553 115.473 242.529C113.964 241.819 112.199 241.819 110.719 242.558Z" fill="#F26522"/>
<path d="M116.725 263.618C124.611 260.548 117.266 251.624 120.455 246.281C119.287 245.116 117.522 243.609 115.444 242.586C113.964 241.847 112.199 241.847 110.719 242.586C107.673 244.093 101.297 246.991 94.55 248.413C94.0376 248.526 93.5537 248.697 93.1267 248.924C93.1267 248.924 99.6171 247.588 103.83 254.75C107.986 261.884 108.84 266.659 116.725 263.618Z" fill="#F7941E"/>
<path d="M114.505 260.264C116.344 260.264 117.835 258.775 117.835 256.939C117.835 255.102 116.344 253.614 114.505 253.614C112.665 253.614 111.174 255.102 111.174 256.939C111.174 258.775 112.665 260.264 114.505 260.264Z" fill="#E6E7E8"/>
<path d="M114.505 259.156C115.731 259.156 116.725 258.163 116.725 256.939C116.725 255.714 115.731 254.722 114.505 254.722C113.279 254.722 112.284 255.714 112.284 256.939C112.284 258.163 113.279 259.156 114.505 259.156Z" fill="#414042"/>
<path d="M124.724 264.073C125.436 263.163 125.806 262.083 125.863 261.003C123.586 263.248 119.6 266.886 116.725 268.165C112.484 270.069 109.153 264.726 100.756 262.254C96.7134 261.06 93.6675 261.344 91.6179 261.941C92.5288 262.879 93.7814 263.476 95.1762 263.533C99.0761 263.76 105.566 264.897 110.89 269.672C112.512 271.121 114.904 271.405 116.839 270.411C119.202 269.245 122.248 267.256 124.724 264.073Z" fill="#DE5426"/>
</g>
<g filter="url(#filter4_f_6_25)">
<path d="M739.45 60.9C739.45 60.9 737.742 59.9336 736.774 57.2905C735.807 54.6473 731.622 54.2494 729.145 56.3242C726.669 58.4273 715.026 58.7968 710.244 60.9C705.461 63.0031 696.722 63.7705 697.007 69.0852C697.291 74.4 701.675 75.1958 702.415 73.4621C703.184 71.7568 712.379 74.9968 714.941 76.901C717.503 78.8052 725.331 83.7505 731.821 82.2442C738.312 80.7379 734.696 76.1336 735.437 73.86C736.234 71.5579 742.126 64.5094 739.45 60.9Z" fill="#D95D98"/>
<path d="M727.494 62.6619C722.427 60.0756 713.774 61.6672 707.454 61.923C702.7 63.4009 696.807 64.7082 697.035 69.1135C697.291 74.4566 701.704 75.224 702.444 73.4903C702.444 73.4903 700.793 70.904 705.717 68.7724C710.642 66.6409 712.179 72.9219 720.008 74.8261C727.836 76.7303 735.209 66.584 727.494 62.6619Z" fill="#F05D96"/>
<path d="M724.164 72.0692C726.003 72.0692 727.494 70.5805 727.494 68.744C727.494 66.9075 726.003 65.4187 724.164 65.4187C722.324 65.4187 720.833 66.9075 720.833 68.744C720.833 70.5805 722.324 72.0692 724.164 72.0692Z" fill="#E6E7E8"/>
<path d="M724.164 70.9608C725.39 70.9608 726.384 69.9683 726.384 68.7439C726.384 67.5196 725.39 66.5271 724.164 66.5271C722.938 66.5271 721.943 67.5196 721.943 68.7439C721.943 69.9683 722.938 70.9608 724.164 70.9608Z" fill="#414042"/>
<path d="M735.465 75.764C735.351 75.0535 735.294 74.3998 735.465 73.8598C736.234 71.5861 742.155 64.5377 739.479 60.8998C739.479 60.8998 737.771 59.9335 736.803 57.2904C736.205 55.6419 734.383 54.8746 732.476 55.0167C737.856 55.983 734.782 62.8893 733.358 65.3904C729.544 72.0693 735.465 75.764 735.465 75.764Z" fill="#DB3D78"/>
</g>
<g filter="url(#filter5_f_6_25)">
<path d="M738.614 183.37C738.614 183.37 736.635 177.698 731.262 177.082C725.889 176.466 716.584 179.572 709.951 178.057C703.293 176.543 699.36 180.367 700.44 193.765C701.519 207.162 701.931 212.603 710.131 214.015C718.332 215.427 731.905 209.78 736.532 202.876C741.159 195.972 739.771 185.577 738.614 183.37Z" fill="#42BFB9"/>
<path d="M715.684 201.849C727.149 202.748 727.792 190.582 729.051 185.937C729.643 183.729 728.383 180.213 726.892 177.159C721.648 177.672 715.015 179.212 709.925 178.057C709.463 177.955 709 177.878 708.563 177.826C709.283 179.649 709.643 182.215 709 185.757C707.252 195.202 704.219 200.977 715.684 201.849Z" fill="#5EC5BE"/>
<path d="M715.118 195.715C716.779 195.715 718.126 194.371 718.126 192.712C718.126 191.054 716.779 189.709 715.118 189.709C713.457 189.709 712.111 191.054 712.111 192.712C712.111 194.371 713.457 195.715 715.118 195.715Z" fill="#E6E7E8"/>
<path d="M715.118 194.714C716.226 194.714 717.123 193.818 717.123 192.712C717.123 191.607 716.226 190.71 715.118 190.71C714.011 190.71 713.113 191.607 713.113 192.712C713.113 193.818 714.011 194.714 715.118 194.714Z" fill="#414042"/>
<path d="M700.414 193.79C701.468 207.162 701.905 212.629 710.105 214.041C715.71 215.016 723.833 212.655 729.874 208.882C729.874 208.882 713.859 212.783 707.638 208.189C702.291 204.262 700.825 186.912 703.447 179.084C700.954 181.137 699.771 185.731 700.414 193.79Z" fill="#02ABA0"/>
</g>
<g filter="url(#filter6_f_6_25)">
<path d="M278.803 80.6665C278.803 80.6665 272.114 77.1991 268.868 70.918C265.623 64.637 260.272 59.8907 253.98 61.2265C247.689 62.5622 244.444 73.8738 248.458 73.8738C252.472 73.8738 251.902 77.3412 251.902 77.3412C251.902 77.3412 243.903 84.3044 245.127 90.7275C246.351 97.1791 254.351 102.92 261.894 100.646C269.438 98.4296 289.478 87.2886 278.803 80.6665Z" fill="#F15D4F"/>
<path d="M265.652 91.6939C277.38 86.9192 264.428 79.3023 260.101 76.4602C255.774 73.5897 249.625 74.016 249.625 74.016C252.358 74.6129 251.902 77.3697 251.902 77.3697C251.902 77.3697 249.255 79.6718 247.262 82.8265C250.65 82.7413 253.924 96.4402 265.652 91.6939Z" fill="#F47E69"/>
<path d="M263.431 88.9086C265.271 88.9086 266.762 87.4198 266.762 85.5833C266.762 83.7468 265.271 82.2581 263.431 82.2581C261.592 82.2581 260.101 83.7468 260.101 85.5833C260.101 87.4198 261.592 88.9086 263.431 88.9086Z" fill="#E6E7E8"/>
<path d="M263.431 87.8001C264.658 87.8001 265.652 86.8076 265.652 85.5833C265.652 84.359 264.658 83.3665 263.431 83.3665C262.205 83.3665 261.211 84.359 261.211 85.5833C261.211 86.8076 262.205 87.8001 263.431 87.8001Z" fill="#414042"/>
<path d="M278.803 80.6664C278.803 80.6664 275.672 79.0464 272.683 76.0054C272.683 76.0054 275.302 80.0412 277.408 82.2296C279.515 84.418 280.938 87.2033 270.463 94.138C259.958 101.073 248.686 98.7138 245.412 91.7506C247.234 97.7475 254.778 102.806 261.923 100.646C269.438 98.4296 289.478 87.2885 278.803 80.6664Z" fill="#DB5447"/>
</g>
<path d="M605.928 140.953C605.928 140.953 607.953 139.903 608.935 138.002C609.917 136.101 611.537 134.664 613.442 135.069C615.346 135.473 616.328 138.897 615.113 138.897C613.898 138.897 614.071 139.946 614.071 139.946C614.071 139.946 616.492 142.054 616.121 143.998C615.751 145.951 613.33 147.689 611.046 147.001C608.763 146.33 602.697 142.957 605.928 140.953Z" fill="#F15D4F"/>
<path d="M609.909 144.291C606.359 142.846 610.279 140.54 611.589 139.68C612.899 138.811 614.76 138.94 614.76 138.94C613.933 139.121 614.071 139.955 614.071 139.955C614.071 139.955 614.872 140.652 615.475 141.607C614.45 141.581 613.459 145.728 609.909 144.291Z" fill="#F47E69"/>
<path d="M610.581 143.448C610.024 143.448 609.573 142.997 609.573 142.441C609.573 141.885 610.024 141.435 610.581 141.435C611.138 141.435 611.589 141.885 611.589 142.441C611.589 142.997 611.138 143.448 610.581 143.448Z" fill="#E6E7E8"/>
<path d="M610.581 143.112C610.21 143.112 609.909 142.812 609.909 142.441C609.909 142.071 610.21 141.77 610.581 141.77C610.952 141.77 611.253 142.071 611.253 142.441C611.253 142.812 610.952 143.112 610.581 143.112Z" fill="#414042"/>
<path d="M605.928 140.953C605.928 140.953 606.876 140.463 607.78 139.542C607.78 139.542 606.988 140.764 606.35 141.426C605.712 142.088 605.282 142.932 608.453 145.031C611.632 147.13 615.044 146.416 616.035 144.308C615.484 146.123 613.2 147.655 611.037 147.001C608.763 146.33 602.697 142.957 605.928 140.953Z" fill="#DB5447"/>
<g filter="url(#filter7_f_6_25)">
<path d="M95.491 102.438C95.491 102.438 93.5553 100.335 89.0006 100.534C84.446 100.733 79.5782 97.9759 77.1871 94.4233C73.6287 89.1654 56.378 92.5191 59.6232 103.944C62.8684 115.37 56.008 120.144 55.0401 130.234C54.0723 140.323 72.0346 147.002 76.2192 138.249C80.4038 129.495 83.8767 119.007 91.1926 115.569C98.5369 112.158 100.843 108.549 95.491 102.438Z" fill="#2E95D2"/>
<path d="M72.177 109.97C64.2348 109.97 61.1889 109.628 59.7656 104.513C62.6407 115.568 55.9795 120.343 55.0401 130.262C54.9547 131.086 55.0117 131.854 55.154 132.621C56.2072 131.797 57.8298 130.916 60.3918 130.148C67.3946 128.045 72.4616 127.477 76.7031 122.532C80.9446 117.586 80.3753 109.97 72.177 109.97Z" fill="#40A3DB"/>
<path d="M73.6004 119.576C75.4398 119.576 76.9309 118.087 76.9309 116.251C76.9309 114.414 75.4398 112.925 73.6004 112.925C71.7609 112.925 70.2698 114.414 70.2698 116.251C70.2698 118.087 71.7609 119.576 73.6004 119.576Z" fill="#E6E7E8"/>
<path d="M73.6003 118.467C74.8266 118.467 75.8207 117.475 75.8207 116.251C75.8207 115.026 74.8266 114.034 73.6003 114.034C72.374 114.034 71.3799 115.026 71.3799 116.251C71.3799 117.475 72.374 118.467 73.6003 118.467Z" fill="#414042"/>
<path d="M77.9556 104.513C77.8986 107.866 84.6452 111.362 90.3385 100.562C89.9115 100.534 89.4845 100.534 89.0006 100.534C84.4459 100.733 79.5782 97.976 77.187 94.4233C77.1585 94.4518 78.0125 101.159 77.9556 104.513Z" fill="#40A3DB"/>
<path d="M91.1925 115.597C97.996 112.414 100.444 109.089 96.5442 103.774C96.8858 106.104 96.8573 108.776 95.434 110.339C92.5589 113.579 86.8371 112.272 82.4533 119.604C78.0694 126.937 75.3936 136.06 70.2411 138.078C67.3945 139.187 62.726 139.073 59.0823 138.732C64.4055 143.08 73.3725 144.132 76.1906 138.277C80.4037 129.495 83.8481 119.008 91.1925 115.597Z" fill="#1B86C8"/>
</g>
<defs>
<filter id="filter0_f_6_25" x="562.979" y="205" width="36.1221" height="53.4971" filterUnits="userSpaceOnUse" color-interpolation-filters="sRGB">
<feFlood flood-opacity="0" result="BackgroundImageFix"/>
<feBlend mode="normal" in="SourceGraphic" in2="BackgroundImageFix" result="shape"/>
<feGaussianBlur stdDeviation="1" result="effect1_foregroundBlur_6_25"/>
</filter>
<filter id="filter1_f_6_25" x="183" y="201.36" width="42.1357" height="35.4241" filterUnits="userSpaceOnUse" color-interpolation-filters="sRGB">
<feFlood flood-opacity="0" result="BackgroundImageFix"/>
<feBlend mode="normal" in="SourceGraphic" in2="BackgroundImageFix" result="shape"/>
<feGaussianBlur stdDeviation="1" result="effect1_foregroundBlur_6_25"/>
</filter>
<filter id="filter2_f_6_25" x="501.167" y="45" width="41.645" height="37.7817" filterUnits="userSpaceOnUse" color-interpolation-filters="sRGB">
<feFlood flood-opacity="0" result="BackgroundImageFix"/>
<feBlend mode="normal" in="SourceGraphic" in2="BackgroundImageFix" result="shape"/>
<feGaussianBlur stdDeviation="2" result="effect1_foregroundBlur_6_25"/>
</filter>
<filter id="filter3_f_6_25" x="89" y="241" width="37.8784" height="30.9976" filterUnits="userSpaceOnUse" color-interpolation-filters="sRGB">
<feFlood flood-opacity="0" result="BackgroundImageFix"/>
<feBlend mode="normal" in="SourceGraphic" in2="BackgroundImageFix" result="shape"/>
<feGaussianBlur stdDeviation="0.5" result="effect1_foregroundBlur_6_25"/>
</filter>
<filter id="filter4_f_6_25" x="695" y="53" width="47.1683" height="31.5254" filterUnits="userSpaceOnUse" color-interpolation-filters="sRGB">
<feFlood flood-opacity="0" result="BackgroundImageFix"/>
<feBlend mode="normal" in="SourceGraphic" in2="BackgroundImageFix" result="shape"/>
<feGaussianBlur stdDeviation="1" result="effect1_foregroundBlur_6_25"/>
</filter>
<filter id="filter5_f_6_25" x="694.241" y="171" width="51.5089" height="49.261" filterUnits="userSpaceOnUse" color-interpolation-filters="sRGB">
<feFlood flood-opacity="0" result="BackgroundImageFix"/>
<feBlend mode="normal" in="SourceGraphic" in2="BackgroundImageFix" result="shape"/>
<feGaussianBlur stdDeviation="3" result="effect1_foregroundBlur_6_25"/>
</filter>
<filter id="filter6_f_6_25" x="242" y="58" width="42.8688" height="46.1545" filterUnits="userSpaceOnUse" color-interpolation-filters="sRGB">
<feFlood flood-opacity="0" result="BackgroundImageFix"/>
<feBlend mode="normal" in="SourceGraphic" in2="BackgroundImageFix" result="shape"/>
<feGaussianBlur stdDeviation="1.5" result="effect1_foregroundBlur_6_25"/>
</filter>
<filter id="filter7_f_6_25" x="54.25" y="91.25" width="44.9194" height="51.834" filterUnits="userSpaceOnUse" color-interpolation-filters="sRGB">
<feFlood flood-opacity="0" result="BackgroundImageFix"/>
<feBlend mode="normal" in="SourceGraphic" in2="BackgroundImageFix" result="shape"/>
<feGaussianBlur stdDeviation="0.375" result="effect1_foregroundBlur_6_25"/>
</filter>
</defs>
</svg>
