<svg width="752" height="317" viewBox="0 0 752 317" fill="none" xmlns="http://www.w3.org/2000/svg">
<g filter="url(#filter0_f_4_187)">
<path d="M567.757 254.333C567.757 254.333 561.641 245.056 567.56 229.762C573.479 214.468 586.615 205.696 589.49 207.158C592.365 208.62 588.363 217.869 593.634 223.099C598.905 228.328 597.496 227.288 593.859 236.621C590.223 245.983 590.843 251.747 582.077 253.968C573.31 256.189 570.717 258.157 567.757 254.333Z" fill="#4EBA6E"/>
<path d="M587.179 217.138C582.359 222.761 569.731 226.781 572.521 237.549C575.312 248.317 583.232 251.381 586.164 242.806C589.067 234.232 593.042 224.589 595.522 224.982C595.043 224.448 594.423 223.83 593.662 223.099C590.054 219.528 590.787 214.074 590.674 210.504C590.505 211.909 589.744 214.13 587.179 217.138Z" fill="#75C485"/>
<path d="M580.104 238.646C581.925 238.646 583.402 237.173 583.402 235.356C583.402 233.54 581.925 232.067 580.104 232.067C578.282 232.067 576.806 233.54 576.806 235.356C576.806 237.173 578.282 238.646 580.104 238.646Z" fill="#E6E7E8"/>
<path d="M580.104 237.549C581.318 237.549 582.302 236.567 582.302 235.356C582.302 234.145 581.318 233.163 580.104 233.163C578.889 233.163 577.905 234.145 577.905 235.356C577.905 236.567 578.889 237.549 580.104 237.549Z" fill="#414042"/>
</g>
<g filter="url(#filter1_f_4_187)">
<path d="M252.271 242.815C252.271 242.815 259.117 238.254 260.651 230.095C262.185 221.936 259.685 216.043 257.611 215.476C255.509 214.91 251.334 217.176 249.8 216.44C248.266 215.675 247.272 212.388 241.932 212.388C236.592 212.388 233.24 220.151 231.507 220.859C229.803 221.567 223.611 218.621 223.071 220.859C222.617 222.814 224.179 235.704 232.558 239.812C234.206 240.634 236.223 239.954 237.046 238.311C237.756 236.894 239.12 235.421 241.648 235.421C246.562 235.364 240.853 247.178 252.271 242.815Z" fill="#F8BE37"/>
<path d="M249.8 216.411C248.266 215.646 247.272 212.36 241.932 212.36C236.592 212.36 233.24 220.123 231.507 220.831C231.138 220.973 230.598 220.973 229.917 220.888C230.627 221.001 233.297 221.652 236.166 224.74C239.489 228.338 241.222 231.71 246.051 230.378C253.152 228.423 245.596 219.273 250.936 216.78C251.135 216.695 251.306 216.581 251.476 216.496C250.794 216.581 250.198 216.61 249.8 216.411Z" fill="#FFCE4B"/>
<path d="M243.863 226.639C245.699 226.639 247.187 225.155 247.187 223.324C247.187 221.493 245.699 220.009 243.863 220.009C242.028 220.009 240.54 221.493 240.54 223.324C240.54 225.155 242.028 226.639 243.863 226.639Z" fill="#E6E7E8"/>
<path d="M243.863 225.534C245.087 225.534 246.079 224.544 246.079 223.324C246.079 222.103 245.087 221.114 243.863 221.114C242.64 221.114 241.648 222.103 241.648 223.324C241.648 224.544 242.64 225.534 243.863 225.534Z" fill="#414042"/>
<path d="M259.259 216.95C259.486 221.738 259.344 229.925 256.021 233.835C251.164 239.529 248.096 242.419 246.59 238.906C245.085 235.364 243.409 231.2 238.438 236.526C239.205 235.874 240.256 235.393 241.676 235.393C246.59 235.393 240.853 247.178 252.3 242.815C252.3 242.815 259.145 238.254 260.679 230.095C261.787 224.061 260.708 219.273 259.259 216.95Z" fill="#F8B32B"/>
</g>
<g filter="url(#filter2_f_4_187)">
<path d="M505.416 58.0104C505.416 58.0104 506.449 52.3115 514.169 50.2805C521.889 48.2495 535.779 48.2495 537.602 53.13C539.426 58.0104 540.216 76.5014 532.283 78.5324C524.351 80.5633 522.527 69.59 519.67 67.3468C516.844 65.134 503.167 67.1649 505.416 58.0104Z" fill="#955BA5"/>
<path d="M528.727 63.8911C530.691 63.8911 532.283 62.3032 532.283 60.3445C532.283 58.3857 530.691 56.7979 528.727 56.7979C526.763 56.7979 525.171 58.3857 525.171 60.3445C525.171 62.3032 526.763 63.8911 528.727 63.8911Z" fill="#E6E7E8"/>
<path d="M528.727 62.7088C530.037 62.7088 531.098 61.6502 531.098 60.3444C531.098 59.0386 530.037 57.98 528.727 57.98C527.418 57.98 526.357 59.0386 526.357 60.3444C526.357 61.6502 527.418 62.7088 528.727 62.7088Z" fill="#414042"/>
<path d="M538.24 69.4688C535.171 74.8645 530.399 75.9861 528.727 71.4088C526.478 65.3159 523.044 63.0727 514.078 62.6786C509.671 62.4968 506.905 61.3449 505.173 60.2233C505.568 66.8012 517.087 65.3159 519.67 67.3468C522.527 69.59 524.351 80.5634 532.283 78.5324C535.627 77.6836 537.42 73.9248 538.24 69.4688Z" fill="#884B9D"/>
</g>
<path d="M145.133 155.821C145.133 155.821 145.686 152.772 149.816 151.685C153.946 150.599 161.377 150.599 162.353 153.21C163.328 155.821 163.751 165.713 159.507 166.8C155.263 167.886 154.287 162.016 152.759 160.816C151.247 159.632 143.93 160.718 145.133 155.821Z" fill="#955BA5"/>
<path d="M157.605 158.967C158.655 158.967 159.507 158.117 159.507 157.069C159.507 156.021 158.655 155.172 157.605 155.172C156.554 155.172 155.702 156.021 155.702 157.069C155.702 158.117 156.554 158.967 157.605 158.967Z" fill="#E6E7E8"/>
<path d="M157.604 158.334C158.305 158.334 158.873 157.768 158.873 157.069C158.873 156.371 158.305 155.804 157.604 155.804C156.904 155.804 156.336 156.371 156.336 157.069C156.336 157.768 156.904 158.334 157.604 158.334Z" fill="#414042"/>
<path d="M162.694 161.951C161.052 164.837 158.499 165.437 157.605 162.989C156.401 159.729 154.564 158.529 149.767 158.318C147.409 158.221 145.93 157.604 145.003 157.004C145.214 160.524 151.377 159.729 152.759 160.815C154.287 162.016 155.263 167.886 159.507 166.8C161.296 166.346 162.255 164.335 162.694 161.951Z" fill="#884B9D"/>
<g filter="url(#filter3_f_4_187)">
<path d="M110.719 242.558C107.673 244.064 101.297 246.963 94.55 248.384C92.3865 248.839 90.707 250.516 90.3369 252.704C90.0238 254.466 89.853 256.683 90.1661 258.957C90.5077 261.486 92.6143 263.39 95.1762 263.533C99.0761 263.76 105.566 264.897 110.89 269.672C112.512 271.121 114.904 271.405 116.839 270.41C119.202 269.217 122.248 267.227 124.724 264.044C126.148 262.197 126.29 259.639 124.952 257.735C123.7 255.944 122.305 253.216 122.02 249.578C121.906 248.299 121.394 247.105 120.483 246.224C119.316 245.059 117.551 243.553 115.473 242.529C113.964 241.819 112.199 241.819 110.719 242.558Z" fill="#F26522"/>
<path d="M116.725 263.618C124.611 260.548 117.266 251.624 120.455 246.281C119.287 245.116 117.522 243.609 115.444 242.586C113.964 241.847 112.199 241.847 110.719 242.586C107.673 244.093 101.297 246.991 94.55 248.413C94.0376 248.526 93.5537 248.697 93.1267 248.924C93.1267 248.924 99.6171 247.588 103.83 254.75C107.986 261.884 108.84 266.659 116.725 263.618Z" fill="#F7941E"/>
<path d="M114.505 260.264C116.344 260.264 117.835 258.775 117.835 256.939C117.835 255.102 116.344 253.614 114.505 253.614C112.665 253.614 111.174 255.102 111.174 256.939C111.174 258.775 112.665 260.264 114.505 260.264Z" fill="#E6E7E8"/>
<path d="M114.505 259.156C115.731 259.156 116.725 258.163 116.725 256.939C116.725 255.715 115.731 254.722 114.505 254.722C113.279 254.722 112.284 255.715 112.284 256.939C112.284 258.163 113.279 259.156 114.505 259.156Z" fill="#414042"/>
<path d="M124.724 264.073C125.436 263.163 125.806 262.083 125.863 261.003C123.586 263.248 119.6 266.886 116.725 268.165C112.484 270.069 109.153 264.726 100.756 262.254C96.7134 261.06 93.6675 261.344 91.6179 261.941C92.5288 262.879 93.7814 263.476 95.1762 263.533C99.0761 263.76 105.566 264.897 110.89 269.671C112.512 271.121 114.904 271.405 116.839 270.41C119.202 269.245 122.248 267.256 124.724 264.073Z" fill="#DE5426"/>
</g>
<g filter="url(#filter4_f_4_187)">
<path d="M739.45 60.9001C739.45 60.9001 737.742 59.9338 736.774 57.2906C735.807 54.6474 731.622 54.2496 729.145 56.3243C726.669 58.4275 715.026 58.7969 710.244 60.9001C705.461 63.0032 696.722 63.7706 697.007 69.0853C697.291 74.4001 701.675 75.1959 702.415 73.4622C703.184 71.7569 712.379 74.9969 714.941 76.9011C717.503 78.8053 725.331 83.7506 731.821 82.2443C738.312 80.738 734.696 76.1338 735.437 73.8601C736.234 71.558 742.126 64.5096 739.45 60.9001Z" fill="#D95D98"/>
<path d="M727.494 62.6619C722.427 60.0756 713.774 61.6672 707.454 61.923C702.7 63.4009 696.807 64.7082 697.035 69.1135C697.291 74.4566 701.704 75.224 702.444 73.4903C702.444 73.4903 700.793 70.904 705.717 68.7724C710.642 66.6409 712.179 72.9219 720.008 74.8261C727.836 76.7303 735.209 66.584 727.494 62.6619Z" fill="#F05D96"/>
<path d="M724.164 72.0693C726.003 72.0693 727.494 70.5806 727.494 68.7441C727.494 66.9076 726.003 65.4188 724.164 65.4188C722.324 65.4188 720.833 66.9076 720.833 68.7441C720.833 70.5806 722.324 72.0693 724.164 72.0693Z" fill="#E6E7E8"/>
<path d="M724.164 70.9609C725.39 70.9609 726.384 69.9684 726.384 68.7441C726.384 67.5197 725.39 66.5272 724.164 66.5272C722.938 66.5272 721.943 67.5197 721.943 68.7441C721.943 69.9684 722.938 70.9609 724.164 70.9609Z" fill="#414042"/>
<path d="M735.465 75.764C735.351 75.0535 735.294 74.3998 735.465 73.8598C736.234 71.5861 742.155 64.5377 739.479 60.8998C739.479 60.8998 737.771 59.9335 736.803 57.2904C736.205 55.6419 734.383 54.8746 732.476 55.0167C737.856 55.983 734.782 62.8893 733.358 65.3904C729.544 72.0693 735.465 75.764 735.465 75.764Z" fill="#DB3D78"/>
</g>
<g filter="url(#filter5_f_4_187)">
<path d="M738.614 183.37C738.614 183.37 736.635 177.698 731.262 177.082C725.889 176.466 716.584 179.572 709.951 178.057C703.293 176.543 699.36 180.367 700.44 193.765C701.519 207.162 701.931 212.603 710.131 214.015C718.332 215.427 731.905 209.78 736.532 202.876C741.159 195.972 739.771 185.577 738.614 183.37Z" fill="#42BFB9"/>
<path d="M715.684 201.849C727.149 202.748 727.792 190.582 729.051 185.937C729.643 183.729 728.383 180.213 726.892 177.159C721.648 177.672 715.015 179.212 709.925 178.057C709.463 177.955 709 177.878 708.563 177.826C709.283 179.649 709.643 182.215 709 185.757C707.252 195.202 704.219 200.977 715.684 201.849Z" fill="#5EC5BE"/>
<path d="M715.118 195.715C716.779 195.715 718.126 194.371 718.126 192.712C718.126 191.054 716.779 189.71 715.118 189.71C713.457 189.71 712.111 191.054 712.111 192.712C712.111 194.371 713.457 195.715 715.118 195.715Z" fill="#E6E7E8"/>
<path d="M715.118 194.714C716.226 194.714 717.123 193.818 717.123 192.713C717.123 191.607 716.226 190.711 715.118 190.711C714.011 190.711 713.113 191.607 713.113 192.713C713.113 193.818 714.011 194.714 715.118 194.714Z" fill="#414042"/>
<path d="M700.414 193.79C701.468 207.162 701.905 212.629 710.105 214.041C715.71 215.016 723.833 212.655 729.874 208.882C729.874 208.882 713.859 212.783 707.638 208.189C702.291 204.262 700.825 186.912 703.447 179.084C700.954 181.137 699.771 185.731 700.414 193.79Z" fill="#02ABA0"/>
</g>
<g filter="url(#filter6_f_4_187)">
<path d="M323.803 80.6665C323.803 80.6665 317.114 77.1991 313.868 70.918C310.623 64.637 305.272 59.8907 298.98 61.2265C292.689 62.5622 289.444 73.8738 293.458 73.8738C297.472 73.8738 296.902 77.3412 296.902 77.3412C296.902 77.3412 288.903 84.3043 290.127 90.7275C291.351 97.1791 299.351 102.92 306.894 100.646C314.438 98.4296 334.478 87.2886 323.803 80.6665Z" fill="#F15D4F"/>
<path d="M310.652 91.6938C322.38 86.919 309.428 79.3022 305.101 76.4601C300.774 73.5896 294.625 74.0159 294.625 74.0159C297.358 74.6127 296.902 77.3696 296.902 77.3696C296.902 77.3696 294.255 79.6717 292.262 82.8264C295.65 82.7412 298.924 96.4401 310.652 91.6938Z" fill="#F47E69"/>
<path d="M308.431 88.9086C310.271 88.9086 311.762 87.4198 311.762 85.5833C311.762 83.7468 310.271 82.2581 308.431 82.2581C306.592 82.2581 305.101 83.7468 305.101 85.5833C305.101 87.4198 306.592 88.9086 308.431 88.9086Z" fill="#E6E7E8"/>
<path d="M308.431 87.8001C309.658 87.8001 310.652 86.8076 310.652 85.5833C310.652 84.359 309.658 83.3665 308.431 83.3665C307.205 83.3665 306.211 84.359 306.211 85.5833C306.211 86.8076 307.205 87.8001 308.431 87.8001Z" fill="#414042"/>
<path d="M323.803 80.6664C323.803 80.6664 320.672 79.0464 317.683 76.0054C317.683 76.0054 320.302 80.0412 322.408 82.2296C324.515 84.418 325.938 87.2033 315.463 94.138C304.958 101.073 293.686 98.7138 290.412 91.7506C292.234 97.7475 299.778 102.806 306.923 100.646C314.438 98.4296 334.478 87.2885 323.803 80.6664Z" fill="#DB5447"/>
</g>
<path d="M605.928 140.953C605.928 140.953 607.953 139.903 608.935 138.002C609.917 136.101 611.537 134.664 613.442 135.069C615.346 135.473 616.328 138.897 615.113 138.897C613.898 138.897 614.071 139.946 614.071 139.946C614.071 139.946 616.492 142.054 616.121 143.998C615.751 145.951 613.33 147.689 611.046 147.001C608.763 146.33 602.697 142.957 605.928 140.953Z" fill="#F15D4F"/>
<path d="M609.909 144.291C606.359 142.846 610.279 140.54 611.589 139.68C612.899 138.811 614.76 138.94 614.76 138.94C613.933 139.121 614.071 139.955 614.071 139.955C614.071 139.955 614.872 140.652 615.475 141.607C614.45 141.581 613.459 145.728 609.909 144.291Z" fill="#F47E69"/>
<path d="M610.581 143.448C610.024 143.448 609.573 142.997 609.573 142.441C609.573 141.885 610.024 141.435 610.581 141.435C611.138 141.435 611.589 141.885 611.589 142.441C611.589 142.997 611.138 143.448 610.581 143.448Z" fill="#E6E7E8"/>
<path d="M610.581 143.112C610.21 143.112 609.909 142.812 609.909 142.441C609.909 142.071 610.21 141.77 610.581 141.77C610.952 141.77 611.253 142.071 611.253 142.441C611.253 142.812 610.952 143.112 610.581 143.112Z" fill="#414042"/>
<path d="M605.928 140.953C605.928 140.953 606.876 140.463 607.78 139.542C607.78 139.542 606.988 140.764 606.35 141.426C605.712 142.088 605.282 142.932 608.453 145.031C611.632 147.13 615.044 146.416 616.035 144.308C615.484 146.123 613.2 147.655 611.037 147.001C608.763 146.33 602.697 142.957 605.928 140.953Z" fill="#DB5447"/>
<g filter="url(#filter7_f_4_187)">
<path d="M95.491 102.438C95.491 102.438 93.5553 100.335 89.0006 100.534C84.446 100.733 79.5782 97.9759 77.187 94.4233C73.6287 89.1654 56.378 92.5191 59.6232 103.944C62.8684 115.37 56.008 120.144 55.0401 130.234C54.0723 140.323 72.0346 147.002 76.2192 138.249C80.4038 129.495 83.8767 119.007 91.1926 115.569C98.5369 112.158 100.843 108.549 95.491 102.438Z" fill="#2E95D2"/>
<path d="M72.177 109.97C64.2348 109.97 61.1889 109.629 59.7656 104.513C62.6407 115.569 55.9795 120.343 55.0401 130.262C54.9547 131.087 55.0117 131.854 55.154 132.621C56.2072 131.797 57.8298 130.916 60.3918 130.149C67.3946 128.045 72.4616 127.477 76.7031 122.532C80.9446 117.587 80.3753 109.97 72.177 109.97Z" fill="#40A3DB"/>
<path d="M73.6004 119.576C75.4398 119.576 76.9309 118.087 76.9309 116.251C76.9309 114.414 75.4398 112.925 73.6004 112.925C71.7609 112.925 70.2698 114.414 70.2698 116.251C70.2698 118.087 71.7609 119.576 73.6004 119.576Z" fill="#E6E7E8"/>
<path d="M73.6003 118.467C74.8266 118.467 75.8207 117.475 75.8207 116.251C75.8207 115.026 74.8266 114.034 73.6003 114.034C72.374 114.034 71.3799 115.026 71.3799 116.251C71.3799 117.475 72.374 118.467 73.6003 118.467Z" fill="#414042"/>
<path d="M77.9556 104.513C77.8986 107.866 84.6452 111.362 90.3385 100.562C89.9115 100.534 89.4845 100.534 89.0006 100.534C84.4459 100.733 79.5782 97.976 77.187 94.4233C77.1585 94.4518 78.0125 101.159 77.9556 104.513Z" fill="#40A3DB"/>
<path d="M91.1925 115.597C97.996 112.414 100.444 109.089 96.5442 103.774C96.8858 106.104 96.8573 108.776 95.434 110.339C92.5589 113.579 86.8371 112.272 82.4533 119.604C78.0694 126.937 75.3936 136.06 70.2411 138.078C67.3945 139.186 62.726 139.073 59.0823 138.732C64.4055 143.08 73.3725 144.132 76.1906 138.277C80.4037 129.495 83.8481 119.007 91.1925 115.597Z" fill="#1B86C8"/>
</g>
<defs>
<filter id="filter0_f_4_187" x="562.979" y="205" width="36.1221" height="53.4971" filterUnits="userSpaceOnUse" color-interpolation-filters="sRGB">
<feFlood flood-opacity="0" result="BackgroundImageFix"/>
<feBlend mode="normal" in="SourceGraphic" in2="BackgroundImageFix" result="shape"/>
<feGaussianBlur stdDeviation="1" result="effect1_foregroundBlur_4_187"/>
</filter>
<filter id="filter1_f_4_187" x="221" y="210.36" width="42.1355" height="35.4242" filterUnits="userSpaceOnUse" color-interpolation-filters="sRGB">
<feFlood flood-opacity="0" result="BackgroundImageFix"/>
<feBlend mode="normal" in="SourceGraphic" in2="BackgroundImageFix" result="shape"/>
<feGaussianBlur stdDeviation="1" result="effect1_foregroundBlur_4_187"/>
</filter>
<filter id="filter2_f_4_187" x="501.167" y="45" width="41.645" height="37.7819" filterUnits="userSpaceOnUse" color-interpolation-filters="sRGB">
<feFlood flood-opacity="0" result="BackgroundImageFix"/>
<feBlend mode="normal" in="SourceGraphic" in2="BackgroundImageFix" result="shape"/>
<feGaussianBlur stdDeviation="2" result="effect1_foregroundBlur_4_187"/>
</filter>
<filter id="filter3_f_4_187" x="89" y="241" width="37.8784" height="30.9976" filterUnits="userSpaceOnUse" color-interpolation-filters="sRGB">
<feFlood flood-opacity="0" result="BackgroundImageFix"/>
<feBlend mode="normal" in="SourceGraphic" in2="BackgroundImageFix" result="shape"/>
<feGaussianBlur stdDeviation="0.5" result="effect1_foregroundBlur_4_187"/>
</filter>
<filter id="filter4_f_4_187" x="695" y="53" width="47.1683" height="31.5255" filterUnits="userSpaceOnUse" color-interpolation-filters="sRGB">
<feFlood flood-opacity="0" result="BackgroundImageFix"/>
<feBlend mode="normal" in="SourceGraphic" in2="BackgroundImageFix" result="shape"/>
<feGaussianBlur stdDeviation="1" result="effect1_foregroundBlur_4_187"/>
</filter>
<filter id="filter5_f_4_187" x="694.241" y="171" width="51.5089" height="49.2609" filterUnits="userSpaceOnUse" color-interpolation-filters="sRGB">
<feFlood flood-opacity="0" result="BackgroundImageFix"/>
<feBlend mode="normal" in="SourceGraphic" in2="BackgroundImageFix" result="shape"/>
<feGaussianBlur stdDeviation="3" result="effect1_foregroundBlur_4_187"/>
</filter>
<filter id="filter6_f_4_187" x="287" y="58" width="42.8688" height="46.1545" filterUnits="userSpaceOnUse" color-interpolation-filters="sRGB">
<feFlood flood-opacity="0" result="BackgroundImageFix"/>
<feBlend mode="normal" in="SourceGraphic" in2="BackgroundImageFix" result="shape"/>
<feGaussianBlur stdDeviation="1.5" result="effect1_foregroundBlur_4_187"/>
</filter>
<filter id="filter7_f_4_187" x="54.25" y="91.25" width="44.9194" height="51.8337" filterUnits="userSpaceOnUse" color-interpolation-filters="sRGB">
<feFlood flood-opacity="0" result="BackgroundImageFix"/>
<feBlend mode="normal" in="SourceGraphic" in2="BackgroundImageFix" result="shape"/>
<feGaussianBlur stdDeviation="0.375" result="effect1_foregroundBlur_4_187"/>
</filter>
</defs>
</svg>
