<svg xmlns:xlink="http://www.w3.org/1999/xlink" width="317" xmlns="http://www.w3.org/2000/svg" height="752" id="screenshot-f450546b-7787-8087-8001-7df9f8d6022c" viewBox="217.5 -217.5 317 752" style="-webkit-print-color-adjust: exact;" fill="none" version="1.1"><g id="shape-f450546b-7787-8087-8001-7df9f8d6022c" width="752" height="317" rx="0" ry="0" style="fill: rgb(0, 0, 0);"><g id="shape-f450546b-7787-8087-8001-7df9f8d75587" rx="0" ry="0" style="fill: rgb(0, 0, 0);"><defs><filter x="422.5" y="-64.60110000000009" width="53.49710000000016" height="36.12209999999993" id="b8a8c295-aa91-805a-8001-7dfa0e12b85a-filter0_f_6_113" filterUnits="userSpaceOnUse" color-interpolation-filters="sRGB" class="svg-def"><feFlood flood-opacity="0" result="BackgroundImageFix"/><feBlend mode="normal" in="SourceGraphic" in2="BackgroundImageFix" result="shape"/><feGaussianBlur stdDeviation="1" result="effect1_foregroundBlur_6_113"/></filter></defs><g id="shape-f450546b-7787-8087-8001-7df9f8d8fda4"><g id="fills-f450546b-7787-8087-8001-7df9f8d8fda4"><path rx="0" ry="0" d="M471.833,-33.257C471.833,-33.257,462.556,-27.141,447.262,-33.06C431.968,-38.979,423.196,-52.115,424.658,-54.99C426.12,-57.865,435.369,-53.863,440.599,-59.134C445.828,-64.405,444.788,-62.996,454.121,-59.359C463.483,-55.723,469.247,-56.343,471.468,-47.577C473.689,-38.81,475.657,-36.217,471.833,-33.257ZZ" style="fill: rgb(78, 186, 110);"/></g></g><g id="shape-f450546b-7787-8087-8001-7df9f8d9f2fd"><g id="fills-f450546b-7787-8087-8001-7df9f8d9f2fd"><path rx="0" ry="0" d="M434.638,-52.679C440.261,-47.859,444.281,-35.231,455.049,-38.021C465.817,-40.812,468.881,-48.732,460.306,-51.664C451.732,-54.567,442.088,-58.542,442.482,-61.022C441.948,-60.543,441.329,-59.923,440.598,-59.162C437.028,-55.554,431.574,-56.287,428.003,-56.174C429.409,-56.005,431.63,-55.244,434.638,-52.679ZZ" style="fill: rgb(117, 196, 133);"/></g></g><g id="shape-f450546b-7787-8087-8001-7df9f8dad899"><g id="fills-f450546b-7787-8087-8001-7df9f8dad899"><path rx="0" ry="0" d="M456.146,-45.604C456.146,-47.425,454.673,-48.902,452.856,-48.902C451.04,-48.902,449.567,-47.425,449.567,-45.604C449.567,-43.782,451.04,-42.306,452.856,-42.306C454.673,-42.306,456.146,-43.782,456.146,-45.604ZZ" style="fill: rgb(230, 231, 232);"/></g></g><g id="shape-f450546b-7787-8087-8001-7df9f8db72de"><g id="fills-f450546b-7787-8087-8001-7df9f8db72de"><path rx="0" ry="0" d="M455.049,-45.604C455.049,-46.818,454.067,-47.802,452.856,-47.802C451.645,-47.802,450.663,-46.818,450.663,-45.604C450.663,-44.389,451.645,-43.405,452.856,-43.405C454.067,-43.405,455.049,-44.389,455.049,-45.604ZZ" style="fill: rgb(65, 64, 66);"/></g></g></g><g id="shape-f450546b-7787-8087-8001-7df9f8dbf1ee" rx="0" ry="0" style="fill: rgb(0, 0, 0);"><defs><filter x="418.8599999999996" y="309.36430000000064" width="35.424099999999896" height="42.13569999999993" id="b8a8c295-aa91-805a-8001-7dfa0e177fb8-filter1_f_6_113" filterUnits="userSpaceOnUse" color-interpolation-filters="sRGB" class="svg-def"><feFlood flood-opacity="0" result="BackgroundImageFix"/><feBlend mode="normal" in="SourceGraphic" in2="BackgroundImageFix" result="shape"/><feGaussianBlur stdDeviation="1" result="effect1_foregroundBlur_6_113"/></filter></defs><g id="shape-f450546b-7787-8087-8001-7df9f8dd387d"><g id="fills-f450546b-7787-8087-8001-7df9f8dd387d"><path rx="0" ry="0" d="M451.315,320.229C451.315,320.229,446.754,313.383,438.595,311.849C430.436,310.315,424.543,312.815,423.976,314.889C423.41,316.991,425.676,321.166,424.94,322.7C424.175,324.234,420.888,325.228,420.888,330.568C420.888,335.908,428.651,339.26,429.359,340.993C430.067,342.697,427.121,348.889,429.359,349.429C431.314,349.883,444.204,348.321,448.312,339.942C449.134,338.294,448.454,336.277,446.811,335.454C445.394,334.744,443.921,333.38,443.921,330.852C443.864,325.938,455.678,331.647,451.315,320.229ZZ" style="fill: rgb(248, 190, 55);"/></g></g><g id="shape-f450546b-7787-8087-8001-7df9f8de176e"><g id="fills-f450546b-7787-8087-8001-7df9f8de176e"><path rx="0" ry="0" d="M424.911,322.7C424.146,324.234,420.86,325.228,420.86,330.568C420.86,335.908,428.623,339.26,429.331,340.993C429.473,341.362,429.473,341.902,429.388,342.583C429.501,341.873,430.152,339.203,433.24,336.334C436.838,333.011,440.21,331.278,438.878,326.449C436.923,319.348,427.773,326.904,425.28,321.564C425.195,321.365,425.081,321.194,424.996,321.024C425.081,321.706,425.11,322.302,424.911,322.7ZZ" style="fill: rgb(255, 206, 75);"/></g></g><g id="shape-f450546b-7787-8087-8001-7df9f8ded380"><g id="fills-f450546b-7787-8087-8001-7df9f8ded380"><path rx="0" ry="0" d="M435.139,328.637C435.139,326.801,433.655,325.313,431.824,325.313C429.993,325.313,428.509,326.801,428.509,328.637C428.509,330.472,429.993,331.96,431.824,331.96C433.655,331.96,435.139,330.472,435.139,328.637ZZ" style="fill: rgb(230, 231, 232);"/></g></g><g id="shape-f450546b-7787-8087-8001-7df9f8df8c92"><g id="fills-f450546b-7787-8087-8001-7df9f8df8c92"><path rx="0" ry="0" d="M434.034,328.636C434.034,327.413,433.044,326.421,431.824,326.421C430.604,326.421,429.614,327.413,429.614,328.636C429.614,329.86,430.604,330.852,431.824,330.852C433.044,330.852,434.034,329.86,434.034,328.636ZZ" style="fill: rgb(65, 64, 66);"/></g></g><g id="shape-f450546b-7787-8087-8001-7df9f8e050fa"><g id="fills-f450546b-7787-8087-8001-7df9f8e050fa"><path rx="0" ry="0" d="M425.45,313.241C430.238,313.014,438.425,313.156,442.335,316.479C448.029,321.336,450.919,324.404,447.406,325.91C443.864,327.415,439.7,329.091,445.026,334.062C444.374,333.295,443.893,332.244,443.893,330.824C443.893,325.91,455.678,331.647,451.315,320.2C451.315,320.2,446.754,313.355,438.595,311.821C432.561,310.713,427.773,311.792,425.45,313.241ZZ" style="fill: rgb(248, 179, 43);"/></g></g></g><g id="shape-f450546b-7787-8087-8001-7df9f8e0e213" rx="0" ry="0" style="fill: rgb(0, 0, 0);"><defs><filter x="262.4999999999998" y="-8.311999999999898" width="37.78169999999989" height="41.64500000000004" id="b8a8c295-aa91-805a-8001-7dfa0e1aa312-filter2_f_6_113" filterUnits="userSpaceOnUse" color-interpolation-filters="sRGB" class="svg-def"><feFlood flood-opacity="0" result="BackgroundImageFix"/><feBlend mode="normal" in="SourceGraphic" in2="BackgroundImageFix" result="shape"/><feGaussianBlur stdDeviation="2" result="effect1_foregroundBlur_6_113"/></filter></defs><g id="shape-f450546b-7787-8087-8001-7df9f8e1b3d2"><g id="fills-f450546b-7787-8087-8001-7df9f8e1b3d2"><path rx="0" ry="0" d="M275.51,29.084C275.51,29.084,269.811,28.051,267.78,20.331C265.749,12.611,265.749,-1.279,270.63,-3.102C275.51,-4.926,294.001,-5.716,296.032,2.217C298.063,10.149,287.09,11.973,284.847,14.83C282.634,17.656,284.665,31.333,275.51,29.084ZZ" style="fill: rgb(149, 91, 165);"/></g></g><g id="shape-f450546b-7787-8087-8001-7df9f8e25003"><g id="fills-f450546b-7787-8087-8001-7df9f8e25003"><path rx="0" ry="0" d="M281.391,5.773C281.391,3.809,279.803,2.217,277.844,2.217C275.886,2.217,274.298,3.809,274.298,5.773C274.298,7.737,275.886,9.329,277.844,9.329C279.803,9.329,281.391,7.737,281.391,5.773ZZ" style="fill: rgb(230, 231, 232);"/></g></g><g id="shape-f450546b-7787-8087-8001-7df9f8e2eebe"><g id="fills-f450546b-7787-8087-8001-7df9f8e2eebe"><path rx="0" ry="0" d="M280.209,5.773C280.209,4.463,279.15,3.402,277.844,3.402C276.539,3.402,275.48,4.463,275.48,5.773C275.48,7.082,276.539,8.143,277.844,8.143C279.15,8.143,280.209,7.082,280.209,5.773ZZ" style="fill: rgb(65, 64, 66);"/></g></g><g id="shape-f450546b-7787-8087-8001-7df9f8e383c4"><g id="fills-f450546b-7787-8087-8001-7df9f8e383c4"><path rx="0" ry="0" d="M286.969,-3.74C292.364,-0.671,293.486,4.101,288.909,5.773C282.816,8.022,280.573,11.456,280.178,20.422C279.997,24.829,278.845,27.595,277.723,29.327C284.301,28.932,282.816,17.413,284.847,14.83C287.09,11.973,298.063,10.149,296.032,2.217C295.184,-1.127,291.425,-2.92,286.969,-3.74ZZ" style="fill: rgb(136, 75, 157);"/></g></g></g><g id="shape-f450546b-7787-8087-8001-7df9f8e450c2"><g id="fills-f450546b-7787-8087-8001-7df9f8e450c2"><path rx="0" ry="0" d="M384.321,389.367C384.321,389.367,381.272,388.814,380.185,384.684C379.099,380.554,379.099,373.123,381.71,372.147C384.321,371.172,394.213,370.749,395.3,374.993C396.386,379.237,390.516,380.213,389.316,381.741C388.132,383.253,389.218,390.57,384.321,389.367ZZ" style="fill: rgb(149, 91, 165);"/></g></g><g id="shape-f450546b-7787-8087-8001-7df9f8e4d8ee"><g id="fills-f450546b-7787-8087-8001-7df9f8e4d8ee"><path rx="0" ry="0" d="M387.467,376.895C387.467,375.845,386.617,374.993,385.569,374.993C384.521,374.993,383.672,375.845,383.672,376.895C383.672,377.946,384.521,378.798,385.569,378.798C386.617,378.798,387.467,377.946,387.467,376.895ZZ" style="fill: rgb(230, 231, 232);"/></g></g><g id="shape-f450546b-7787-8087-8001-7df9f8e56211"><g id="fills-f450546b-7787-8087-8001-7df9f8e56211"><path rx="0" ry="0" d="M386.834,376.896C386.834,376.195,386.268,375.627,385.569,375.627C384.871,375.627,384.304,376.195,384.304,376.896C384.304,377.596,384.871,378.164,385.569,378.164C386.268,378.164,386.834,377.596,386.834,376.896ZZ" style="fill: rgb(65, 64, 66);"/></g></g><g id="shape-f450546b-7787-8087-8001-7df9f8e6319d"><g id="fills-f450546b-7787-8087-8001-7df9f8e6319d"><path rx="0" ry="0" d="M390.451,371.806C393.337,373.448,393.937,376.001,391.489,376.895C388.229,378.099,387.029,379.936,386.818,384.733C386.721,387.091,386.104,388.57,385.504,389.497C389.024,389.286,388.229,383.123,389.315,381.741C390.516,380.213,396.386,379.237,395.3,374.993C394.846,373.204,392.835,372.245,390.451,371.806ZZ" style="fill: rgb(136, 75, 157);"/></g></g><g id="shape-f450546b-7787-8087-8001-7df9f8e66579" rx="0" ry="0" style="fill: rgb(0, 0, 0);"><defs><filter x="458.49999999999955" y="407.6216000000005" width="30.99760000000026" height="37.878400000000056" id="b8a8c295-aa91-805a-8001-7dfa0e1e411a-filter3_f_6_113" filterUnits="userSpaceOnUse" color-interpolation-filters="sRGB" class="svg-def"><feFlood flood-opacity="0" result="BackgroundImageFix"/><feBlend mode="normal" in="SourceGraphic" in2="BackgroundImageFix" result="shape"/><feGaussianBlur stdDeviation="0.5" result="effect1_foregroundBlur_6_113"/></filter></defs><g id="shape-f450546b-7787-8087-8001-7df9f8e728b2"><g id="fills-f450546b-7787-8087-8001-7df9f8e728b2"><path rx="0" ry="0" d="M460.058,423.781C461.564,426.827,464.463,433.203,465.884,439.95C466.339,442.114,468.016,443.793,470.204,444.163C471.966,444.476,474.183,444.647,476.457,444.334C478.986,443.992,480.89,441.886,481.033,439.324C481.26,435.424,482.397,428.934,487.172,423.61C488.621,421.988,488.905,419.596,487.91,417.661C486.717,415.298,484.727,412.252,481.544,409.776C479.697,408.352,477.139,408.21,475.235,409.548C473.444,410.8,470.716,412.195,467.078,412.48C465.799,412.594,464.605,413.106,463.724,414.017C462.559,415.184,461.053,416.949,460.029,419.027C459.319,420.536,459.319,422.301,460.058,423.781ZZ" style="fill: rgb(242, 101, 34);"/></g></g><g id="shape-f450546b-7787-8087-8001-7df9f8e7c2a4"><g id="fills-f450546b-7787-8087-8001-7df9f8e7c2a4"><path rx="0" ry="0" d="M481.118,417.775C478.048,409.889,469.124,417.234,463.781,414.045C462.616,415.213,461.109,416.978,460.086,419.056C459.347,420.536,459.347,422.301,460.086,423.781C461.593,426.827,464.491,433.203,465.913,439.95C466.026,440.462,466.197,440.946,466.424,441.373C466.424,441.373,465.088,434.883,472.25,430.67C479.384,426.514,484.159,425.66,481.118,417.775ZZ" style="fill: rgb(247, 148, 30);"/></g></g><g id="shape-f450546b-7787-8087-8001-7df9f8e87169"><g id="fills-f450546b-7787-8087-8001-7df9f8e87169"><path rx="0" ry="0" d="M477.764,419.995C477.764,418.156,476.275,416.665,474.439,416.665C472.602,416.665,471.114,418.156,471.114,419.995C471.114,421.835,472.602,423.326,474.439,423.326C476.275,423.326,477.764,421.835,477.764,419.995ZZ" style="fill: rgb(230, 231, 232);"/></g></g><g id="shape-f450546b-7787-8087-8001-7df9f8e9156f"><g id="fills-f450546b-7787-8087-8001-7df9f8e9156f"><path rx="0" ry="0" d="M476.656,419.995C476.656,418.769,475.663,417.775,474.439,417.775C473.214,417.775,472.222,418.769,472.222,419.995C472.222,421.221,473.214,422.216,474.439,422.216C475.663,422.216,476.656,421.221,476.656,419.995ZZ" style="fill: rgb(65, 64, 66);"/></g></g><g id="shape-f450546b-7787-8087-8001-7df9f8e9c6df"><g id="fills-f450546b-7787-8087-8001-7df9f8e9c6df"><path rx="0" ry="0" d="M481.573,409.776C480.663,409.064,479.583,408.694,478.503,408.637C480.748,410.914,484.386,414.9,485.665,417.775C487.569,422.016,482.226,425.347,479.754,433.744C478.56,437.787,478.844,440.833,479.441,442.882C480.379,441.971,480.976,440.719,481.033,439.324C481.26,435.424,482.397,428.934,487.172,423.61C488.621,421.988,488.905,419.596,487.911,417.661C486.745,415.298,484.756,412.252,481.573,409.776ZZ" style="fill: rgb(222, 84, 38);"/></g></g></g><g id="shape-f450546b-7787-8087-8001-7df9f8ea3c0e" rx="0" ry="0" style="fill: rgb(0, 0, 0);"><defs><filter x="270.50000000000034" y="-207.66829999999982" width="31.525399999999422" height="47.16829999999993" id="b8a8c295-aa91-805a-8001-7dfa0e206a3b-filter4_f_6_113" filterUnits="userSpaceOnUse" color-interpolation-filters="sRGB" class="svg-def"><feFlood flood-opacity="0" result="BackgroundImageFix"/><feBlend mode="normal" in="SourceGraphic" in2="BackgroundImageFix" result="shape"/><feGaussianBlur stdDeviation="1" result="effect1_foregroundBlur_6_113"/></filter></defs><g id="shape-f450546b-7787-8087-8001-7df9f8eabd7a"><g id="fills-f450546b-7787-8087-8001-7df9f8eabd7a"><path rx="0" ry="0" d="M278.4,-204.95C278.4,-204.95,277.434,-203.242,274.79,-202.274C272.147,-201.307,271.749,-197.122,273.824,-194.645C275.927,-192.169,276.297,-180.526,278.4,-175.744C280.503,-170.961,281.27,-162.222,286.585,-162.507C291.9,-162.791,292.696,-167.175,290.962,-167.915C289.257,-168.684,292.497,-177.879,294.401,-180.441C296.305,-183.003,301.25,-190.831,299.744,-197.321C298.238,-203.812,293.634,-200.196,291.36,-200.937C289.058,-201.734,282.009,-207.626,278.4,-204.95ZZ" style="fill: rgb(217, 93, 152);"/></g></g><g id="shape-f450546b-7787-8087-8001-7df9f8eb54a1"><g id="fills-f450546b-7787-8087-8001-7df9f8eb54a1"><path rx="0" ry="0" d="M280.162,-192.994C277.576,-187.927,279.167,-179.274,279.423,-172.954C280.901,-168.2,282.208,-162.307,286.613,-162.535C291.957,-162.791,292.724,-167.204,290.99,-167.944C290.99,-167.944,288.404,-166.293,286.272,-171.217C284.141,-176.142,290.422,-177.679,292.326,-185.508C294.23,-193.336,284.084,-200.709,280.162,-192.994ZZ" style="fill: rgb(240, 93, 150);"/></g></g><g id="shape-f450546b-7787-8087-8001-7df9f8ebefe1"><g id="fills-f450546b-7787-8087-8001-7df9f8ebefe1"><path rx="0" ry="0" d="M289.569,-189.664C289.569,-191.503,288.08,-192.994,286.244,-192.994C284.407,-192.994,282.919,-191.503,282.919,-189.664C282.919,-187.824,284.407,-186.333,286.244,-186.333C288.08,-186.333,289.569,-187.824,289.569,-189.664ZZ" style="fill: rgb(230, 231, 232);"/></g></g><g id="shape-f450546b-7787-8087-8001-7df9f8ec5172"><g id="fills-f450546b-7787-8087-8001-7df9f8ec5172"><path rx="0" ry="0" d="M288.461,-189.664C288.461,-190.89,287.468,-191.884,286.244,-191.884C285.02,-191.884,284.027,-190.89,284.027,-189.664C284.027,-188.438,285.02,-187.443,286.244,-187.443C287.468,-187.443,288.461,-188.438,288.461,-189.664ZZ" style="fill: rgb(65, 64, 66);"/></g></g><g id="shape-f450546b-7787-8087-8001-7df9f8ed3773"><g id="fills-f450546b-7787-8087-8001-7df9f8ed3773"><path rx="0" ry="0" d="M293.264,-200.965C292.553,-200.851,291.9,-200.794,291.36,-200.965C289.086,-201.734,282.038,-207.655,278.4,-204.979C278.4,-204.979,277.433,-203.271,274.79,-202.303C273.142,-201.705,272.375,-199.883,272.517,-197.976C273.483,-203.356,280.389,-200.282,282.89,-198.858C289.569,-195.044,293.264,-200.965,293.264,-200.965ZZ" style="fill: rgb(219, 61, 120);"/></g></g></g><g id="shape-f450546b-7787-8087-8001-7df9f8ed4bb4" rx="0" ry="0" style="fill: rgb(0, 0, 0);"><defs><filter x="388.4999999999998" y="-211.24990000000014" width="49.26100000000008" height="51.50890000000004" id="b8a8c295-aa91-805a-8001-7dfa0e2316bc-filter5_f_6_113" filterUnits="userSpaceOnUse" color-interpolation-filters="sRGB" class="svg-def"><feFlood flood-opacity="0" result="BackgroundImageFix"/><feBlend mode="normal" in="SourceGraphic" in2="BackgroundImageFix" result="shape"/><feGaussianBlur stdDeviation="3" result="effect1_foregroundBlur_6_113"/></filter></defs><g id="shape-f450546b-7787-8087-8001-7df9f8edc833"><g id="fills-f450546b-7787-8087-8001-7df9f8edc833"><path rx="0" ry="0" d="M400.87,-204.114C400.87,-204.114,395.198,-202.135,394.582,-196.762C393.966,-191.389,397.072,-182.084,395.557,-175.451C394.043,-168.793,397.867,-164.86,411.265,-165.94C424.662,-167.019,430.103,-167.431,431.515,-175.631C432.927,-183.832,427.28,-197.405,420.376,-202.032C413.472,-206.659,403.077,-205.271,400.87,-204.114ZZ" style="fill: rgb(66, 191, 185);"/></g></g><g id="shape-f450546b-7787-8087-8001-7df9f8ee46a7"><g id="fills-f450546b-7787-8087-8001-7df9f8ee46a7"><path rx="0" ry="0" d="M419.349,-181.184C420.248,-192.649,408.082,-193.292,403.437,-194.551C401.229,-195.143,397.713,-193.883,394.659,-192.392C395.172,-187.148,396.712,-180.515,395.557,-175.425C395.455,-174.963,395.378,-174.5,395.326,-174.063C397.149,-174.783,399.715,-175.143,403.257,-174.5C412.702,-172.752,418.477,-169.719,419.349,-181.184ZZ" style="fill: rgb(94, 197, 190);"/></g></g><g id="shape-f450546b-7787-8087-8001-7df9f8eefb26"><g id="fills-f450546b-7787-8087-8001-7df9f8eefb26"><path rx="0" ry="0" d="M413.215,-180.618C413.215,-182.279,411.871,-183.626,410.212,-183.626C408.554,-183.626,407.209,-182.279,407.209,-180.618C407.209,-178.957,408.554,-177.611,410.212,-177.611C411.871,-177.611,413.215,-178.957,413.215,-180.618ZZ" style="fill: rgb(230, 231, 232);"/></g></g><g id="shape-f450546b-7787-8087-8001-7df9f8ef6185"><g id="fills-f450546b-7787-8087-8001-7df9f8ef6185"><path rx="0" ry="0" d="M412.214,-180.618C412.214,-181.726,411.318,-182.623,410.212,-182.623C409.107,-182.623,408.21,-181.726,408.21,-180.618C408.21,-179.511,409.107,-178.613,410.212,-178.613C411.318,-178.613,412.214,-179.511,412.214,-180.618ZZ" style="fill: rgb(65, 64, 66);"/></g></g><g id="shape-f450546b-7787-8087-8001-7df9f8efcb51"><g id="fills-f450546b-7787-8087-8001-7df9f8efcb51"><path rx="0" ry="0" d="M411.29,-165.914C424.662,-166.968,430.129,-167.405,431.541,-175.605C432.516,-181.21,430.155,-189.333,426.382,-195.374C426.382,-195.374,430.283,-179.359,425.689,-173.138C421.762,-167.791,404.412,-166.325,396.584,-168.947C398.637,-166.454,403.231,-165.271,411.29,-165.914ZZ" style="fill: rgb(2, 171, 160);"/></g></g></g><g id="shape-f450546b-7787-8087-8001-7df9f8f02d7d" rx="0" ry="0" style="fill: rgb(0, 0, 0);"><defs><filter x="275.4999999999998" y="249.63119999999964" width="46.154499999999985" height="42.86880000000025" id="b8a8c295-aa91-805a-8001-7dfa0e253bc4-filter6_f_6_113" filterUnits="userSpaceOnUse" color-interpolation-filters="sRGB" class="svg-def"><feFlood flood-opacity="0" result="BackgroundImageFix"/><feBlend mode="normal" in="SourceGraphic" in2="BackgroundImageFix" result="shape"/><feGaussianBlur stdDeviation="1.5" result="effect1_foregroundBlur_6_113"/></filter></defs><g id="shape-f450546b-7787-8087-8001-7df9f8f0efa1"><g id="fills-f450546b-7787-8087-8001-7df9f8f0efa1"><path rx="0" ry="0" d="M298.166,255.697C298.166,255.697,294.699,262.386,288.418,265.632C282.137,268.877,277.391,274.228,278.726,280.52C280.062,286.811,291.374,290.056,291.374,286.042C291.374,282.028,294.841,282.598,294.841,282.598C294.841,282.598,301.804,290.597,308.227,289.373C314.679,288.149,320.42,280.149,318.146,272.606C315.93,265.062,304.789,245.022,298.166,255.697ZZ" style="fill: rgb(241, 93, 79);"/></g></g><g id="shape-f450546b-7787-8087-8001-7df9f8f1782c"><g id="fills-f450546b-7787-8087-8001-7df9f8f1782c"><path rx="0" ry="0" d="M309.194,268.848C304.419,257.12,296.802,270.072,293.96,274.399C291.09,278.726,291.516,284.875,291.516,284.875C292.113,282.142,294.87,282.598,294.87,282.598C294.87,282.598,297.172,285.245,300.327,287.238C300.241,283.85,313.94,280.576,309.194,268.848ZZ" style="fill: rgb(244, 126, 105);"/></g></g><g id="shape-f450546b-7787-8087-8001-7df9f8f1ead2"><g id="fills-f450546b-7787-8087-8001-7df9f8f1ead2"><path rx="0" ry="0" d="M306.409,271.069C306.409,269.229,304.92,267.738,303.083,267.738C301.247,267.738,299.758,269.229,299.758,271.069C299.758,272.908,301.247,274.399,303.083,274.399C304.92,274.399,306.409,272.908,306.409,271.069ZZ" style="fill: rgb(230, 231, 232);"/></g></g><g id="shape-f450546b-7787-8087-8001-7df9f8f244a6"><g id="fills-f450546b-7787-8087-8001-7df9f8f244a6"><path rx="0" ry="0" d="M305.3,271.069C305.3,269.842,304.308,268.848,303.083,268.848C301.859,268.848,300.867,269.842,300.867,271.069C300.867,272.295,301.859,273.289,303.083,273.289C304.308,273.289,305.3,272.295,305.3,271.069ZZ" style="fill: rgb(65, 64, 66);"/></g></g><g id="shape-f450546b-7787-8087-8001-7df9f8f2fbd3"><g id="fills-f450546b-7787-8087-8001-7df9f8f2fbd3"><path rx="0" ry="0" d="M298.166,255.697C298.166,255.697,296.546,258.828,293.505,261.817C293.505,261.817,297.541,259.198,299.73,257.092C301.918,254.985,304.703,253.562,311.638,264.037C318.573,274.542,316.214,285.814,309.251,289.088C315.247,287.266,320.306,279.722,318.146,272.577C315.93,265.062,304.789,245.022,298.166,255.697ZZ" style="fill: rgb(219, 84, 71);"/></g></g></g><g id="shape-f450546b-7787-8087-8001-7df9f8f300f8"><g id="fills-f450546b-7787-8087-8001-7df9f8f300f8"><path rx="0" ry="0" d="M378.453,-85.428C378.453,-85.428,377.403,-87.453,375.502,-88.435C373.601,-89.417,372.164,-91.037,372.569,-92.942C372.973,-94.846,376.397,-95.828,376.397,-94.613C376.397,-93.398,377.446,-93.571,377.446,-93.571C377.446,-93.571,379.554,-95.992,381.498,-95.621C383.451,-95.251,385.189,-92.83,384.501,-90.546C383.83,-88.263,380.457,-82.197,378.453,-85.428ZZ" style="fill: rgb(241, 93, 79);"/></g></g><g id="shape-f450546b-7787-8087-8001-7df9f8f39037"><g id="fills-f450546b-7787-8087-8001-7df9f8f39037"><path rx="0" ry="0" d="M381.791,-89.409C380.346,-85.859,378.04,-89.779,377.18,-91.089C376.311,-92.399,376.44,-94.26,376.44,-94.26C376.621,-93.433,377.455,-93.571,377.455,-93.571C377.455,-93.571,378.152,-94.372,379.107,-94.975C379.081,-93.95,383.228,-92.959,381.791,-89.409ZZ" style="fill: rgb(244, 126, 105);"/></g></g><g id="shape-f450546b-7787-8087-8001-7df9f8f462b9"><g id="fills-f450546b-7787-8087-8001-7df9f8f462b9"><path rx="0" ry="0" d="M380.948,-90.081C380.948,-89.524,380.497,-89.073,379.941,-89.073C379.385,-89.073,378.935,-89.524,378.935,-90.081C378.935,-90.638,379.385,-91.089,379.941,-91.089C380.497,-91.089,380.948,-90.638,380.948,-90.081ZZ" style="fill: rgb(230, 231, 232);"/></g></g><g id="shape-f450546b-7787-8087-8001-7df9f8f4bf03"><g id="fills-f450546b-7787-8087-8001-7df9f8f4bf03"><path rx="0" ry="0" d="M380.612,-90.081C380.612,-89.71,380.312,-89.409,379.941,-89.409C379.571,-89.409,379.27,-89.71,379.27,-90.081C379.27,-90.452,379.571,-90.753,379.941,-90.753C380.312,-90.753,380.612,-90.452,380.612,-90.081ZZ" style="fill: rgb(65, 64, 66);"/></g></g><g id="shape-f450546b-7787-8087-8001-7df9f8f5040b"><g id="fills-f450546b-7787-8087-8001-7df9f8f5040b"><path rx="0" ry="0" d="M378.453,-85.428C378.453,-85.428,377.963,-86.376,377.042,-87.28C377.042,-87.28,378.264,-86.488,378.926,-85.85C379.588,-85.212,380.432,-84.782,382.531,-87.953C384.63,-91.132,383.916,-94.544,381.808,-95.535C383.623,-94.984,385.155,-92.7,384.501,-90.537C383.83,-88.263,380.457,-82.197,378.453,-85.428ZZ" style="fill: rgb(219, 84, 71);"/></g></g><g id="shape-f450546b-7787-8087-8001-7df9f8f5a12c" rx="0" ry="0" style="fill: rgb(0, 0, 0);"><defs><filter x="308.7499999999998" y="448.33059999999983" width="51.833999999999946" height="44.91940000000045" id="b8a8c295-aa91-805a-8001-7dfa0e2841f5-filter7_f_6_113" filterUnits="userSpaceOnUse" color-interpolation-filters="sRGB" class="svg-def"><feFlood flood-opacity="0" result="BackgroundImageFix"/><feBlend mode="normal" in="SourceGraphic" in2="BackgroundImageFix" result="shape"/><feGaussianBlur stdDeviation="0.375" result="effect1_foregroundBlur_6_113"/></filter></defs><g id="shape-f450546b-7787-8087-8001-7df9f8f65af3"><g id="fills-f450546b-7787-8087-8001-7df9f8f65af3"><path rx="0" ry="0" d="M319.938,452.009C319.938,452.009,317.835,453.945,318.034,458.499C318.233,463.054,315.476,467.922,311.923,470.313C306.665,473.871,310.019,491.122,321.444,487.877C332.87,484.632,337.644,491.492,347.734,492.46C357.823,493.428,364.502,475.465,355.749,471.281C346.995,467.096,336.507,463.623,333.069,456.307C329.658,448.963,326.049,446.657,319.938,452.009ZZ" style="fill: rgb(46, 149, 210);"/></g></g><g id="shape-f450546b-7787-8087-8001-7df9f8f6f852"><g id="fills-f450546b-7787-8087-8001-7df9f8f6f852"><path rx="0" ry="0" d="M327.47,475.323C327.47,483.265,327.128,486.311,322.013,487.734C333.068,484.859,337.843,491.521,347.762,492.46C348.586,492.545,349.354,492.488,350.121,492.346C349.297,491.293,348.416,489.67,347.648,487.108C345.545,480.105,344.977,475.038,340.032,470.797C335.086,466.555,327.47,467.125,327.47,475.323ZZ" style="fill: rgb(64, 163, 219);"/></g></g><g id="shape-f450546b-7787-8087-8001-7df9f8f77f8b"><g id="fills-f450546b-7787-8087-8001-7df9f8f77f8b"><path rx="0" ry="0" d="M337.076,473.9C337.076,472.06,335.587,470.569,333.751,470.569C331.914,470.569,330.425,472.06,330.425,473.9C330.425,475.739,331.914,477.23,333.751,477.23C335.587,477.23,337.076,475.739,337.076,473.9ZZ" style="fill: rgb(230, 231, 232);"/></g></g><g id="shape-f450546b-7787-8087-8001-7df9f8f7d017"><g id="fills-f450546b-7787-8087-8001-7df9f8f7d017"><path rx="0" ry="0" d="M335.967,473.9C335.967,472.673,334.975,471.679,333.751,471.679C332.526,471.679,331.534,472.673,331.534,473.9C331.534,475.126,332.526,476.12,333.751,476.12C334.975,476.12,335.967,475.126,335.967,473.9ZZ" style="fill: rgb(65, 64, 66);"/></g></g><g id="shape-f450546b-7787-8087-8001-7df9f8f83dfb"><g id="fills-f450546b-7787-8087-8001-7df9f8f83dfb"><path rx="0" ry="0" d="M322.013,469.544C325.366,469.601,328.862,462.855,318.062,457.161C318.034,457.588,318.034,458.015,318.034,458.499C318.233,463.054,315.476,467.922,311.923,470.313C311.952,470.341,318.659,469.487,322.013,469.544ZZ" style="fill: rgb(64, 163, 219);"/></g></g><g id="shape-f450546b-7787-8087-8001-7df9f8f8e952"><g id="fills-f450546b-7787-8087-8001-7df9f8f8e952"><path rx="0" ry="0" d="M333.097,456.308C329.914,449.504,326.589,447.056,321.274,450.956C323.604,450.614,326.276,450.643,327.839,452.066C331.079,454.941,329.772,460.663,337.104,465.047C344.437,469.431,353.56,472.106,355.578,477.259C356.687,480.106,356.573,484.774,356.232,488.418C360.58,483.095,361.632,474.127,355.777,471.309C346.995,467.096,336.508,463.652,333.097,456.308ZZ" style="fill: rgb(27, 134, 200);"/></g></g></g></g></svg>