<svg width="752" height="317" viewBox="0 0 752 317" fill="none" xmlns="http://www.w3.org/2000/svg">
<g filter="url(#filter0_f_4_187)">
<path d="M555.9 253.459C555.9 253.459 547.312 240.432 555.623 218.959C563.935 197.485 582.378 185.169 586.415 187.222C590.452 189.274 584.832 202.261 592.233 209.603C599.634 216.946 597.655 215.485 592.549 228.59C587.444 241.735 588.315 249.827 576.006 252.946C563.697 256.064 560.056 258.827 555.9 253.459Z" fill="#4EBA6E"/>
<path d="M583.17 201.235C576.402 209.13 558.671 214.774 562.589 229.893C566.507 245.011 577.629 249.314 581.745 237.274C585.821 225.235 591.402 211.696 594.884 212.248C594.212 211.498 593.341 210.63 592.272 209.603C587.206 204.59 588.235 196.932 588.077 191.919C587.84 193.893 586.771 197.011 583.17 201.235Z" fill="#75C485"/>
<path d="M573.236 231.432C575.793 231.432 577.866 229.365 577.866 226.814C577.866 224.263 575.793 222.196 573.236 222.196C570.678 222.196 568.605 224.263 568.605 226.814C568.605 229.365 570.678 231.432 573.236 231.432Z" fill="#E6E7E8"/>
<path d="M573.235 229.893C574.94 229.893 576.323 228.514 576.323 226.814C576.323 225.113 574.94 223.735 573.235 223.735C571.531 223.735 570.148 225.113 570.148 226.814C570.148 228.514 571.531 229.893 573.235 229.893Z" fill="#414042"/>
</g>
<g filter="url(#filter1_f_4_187)">
<path d="M232.785 186.434C232.785 186.434 242.323 180.079 244.46 168.71C246.597 157.342 243.114 149.132 240.225 148.342C237.297 147.553 231.479 150.71 229.341 149.684C227.204 148.618 225.819 144.039 218.378 144.039C210.938 144.039 206.268 154.855 203.854 155.842C201.479 156.829 192.851 152.724 192.099 155.842C191.466 158.566 193.642 176.526 205.318 182.25C207.613 183.395 210.423 182.447 211.571 180.158C212.561 178.184 214.46 176.132 217.983 176.132C224.83 176.053 216.875 192.513 232.785 186.434Z" fill="#F8BE37"/>
<path d="M229.342 149.645C227.204 148.579 225.819 144 218.379 144C210.938 144 206.268 154.816 203.854 155.803C203.339 156 202.587 156 201.637 155.882C202.627 156.039 206.347 156.947 210.344 161.25C214.975 166.263 217.389 170.961 224.117 169.105C234.012 166.382 223.484 153.632 230.925 150.158C231.202 150.039 231.439 149.882 231.677 149.763C230.727 149.882 229.896 149.921 229.342 149.645Z" fill="#FFCE4B"/>
<path d="M221.07 163.895C223.627 163.895 225.7 161.827 225.7 159.276C225.7 156.726 223.627 154.658 221.07 154.658C218.512 154.658 216.439 156.726 216.439 159.276C216.439 161.827 218.512 163.895 221.07 163.895Z" fill="#E6E7E8"/>
<path d="M221.07 162.355C222.775 162.355 224.157 160.977 224.157 159.276C224.157 157.576 222.775 156.197 221.07 156.197C219.365 156.197 217.983 157.576 217.983 159.276C217.983 160.977 219.365 162.355 221.07 162.355Z" fill="#414042"/>
<path d="M242.521 150.395C242.837 157.066 242.64 168.474 238.009 173.921C231.241 181.855 226.967 185.882 224.869 180.987C222.772 176.053 220.437 170.25 213.51 177.671C214.579 176.763 216.043 176.092 218.022 176.092C224.869 176.092 216.875 192.513 232.824 186.434C232.824 186.434 242.363 180.079 244.5 168.711C246.043 160.303 244.539 153.632 242.521 150.395Z" fill="#F8B32B"/>
</g>
<g filter="url(#filter2_f_4_187)">
<path d="M549.324 78.7333C549.324 78.7333 550.669 71.3122 560.722 68.6675C570.775 66.0228 588.862 66.0228 591.236 72.378C593.611 78.7333 594.64 102.812 584.31 105.457C573.981 108.102 571.606 93.8122 567.886 90.8912C564.205 88.0096 546.395 90.6543 549.324 78.7333Z" fill="#955BA5"/>
<path d="M579.68 86.3911C582.237 86.3911 584.31 84.3234 584.31 81.7727C584.31 79.222 582.237 77.1543 579.68 77.1543C577.122 77.1543 575.049 79.222 575.049 81.7727C575.049 84.3234 577.122 86.3911 579.68 86.3911Z" fill="#E6E7E8"/>
<path d="M579.68 84.8516C581.385 84.8516 582.767 83.4731 582.767 81.7727C582.767 80.0722 581.385 78.6937 579.68 78.6937C577.975 78.6937 576.593 80.0722 576.593 81.7727C576.593 83.4731 577.975 84.8516 579.68 84.8516Z" fill="#414042"/>
<path d="M592.067 93.6543C588.07 100.681 581.856 102.141 579.68 96.1807C576.751 88.2465 572.279 85.3254 560.603 84.8122C554.865 84.5754 551.263 83.0754 549.007 81.6149C549.522 90.1807 564.522 88.2464 567.886 90.8912C571.606 93.8122 573.981 108.102 584.31 105.457C588.664 104.352 590.999 99.457 592.067 93.6543Z" fill="#884B9D"/>
</g>
<path d="M103.133 158.821C103.133 158.821 103.686 155.772 107.816 154.685C111.946 153.599 119.377 153.599 120.353 156.21C121.328 158.821 121.751 168.713 117.507 169.8C113.263 170.886 112.287 165.016 110.759 163.816C109.247 162.632 101.93 163.718 103.133 158.821Z" fill="#955BA5"/>
<path d="M115.605 161.967C116.655 161.967 117.507 161.117 117.507 160.069C117.507 159.021 116.655 158.172 115.605 158.172C114.554 158.172 113.702 159.021 113.702 160.069C113.702 161.117 114.554 161.967 115.605 161.967Z" fill="#E6E7E8"/>
<path d="M115.604 161.334C116.305 161.334 116.873 160.768 116.873 160.069C116.873 159.371 116.305 158.804 115.604 158.804C114.904 158.804 114.336 159.371 114.336 160.069C114.336 160.768 114.904 161.334 115.604 161.334Z" fill="#414042"/>
<path d="M120.694 164.951C119.052 167.837 116.499 168.437 115.605 165.989C114.401 162.729 112.564 161.529 107.767 161.318C105.409 161.221 103.93 160.604 103.003 160.004C103.214 163.524 109.377 162.729 110.759 163.815C112.287 165.016 113.263 170.886 117.507 169.8C119.296 169.346 120.255 167.335 120.694 164.951Z" fill="#884B9D"/>
<g filter="url(#filter3_f_4_187)">
<path d="M78.7189 249.558C75.673 251.064 69.2965 253.963 62.55 255.384C60.3865 255.839 58.707 257.516 58.3369 259.704C58.0238 261.466 57.853 263.683 58.1661 265.957C58.5077 268.486 60.6143 270.39 63.1762 270.533C67.0761 270.76 73.5665 271.897 78.8897 276.672C80.5123 278.121 82.9035 278.405 84.8392 277.41C87.202 276.217 90.2479 274.227 92.7245 271.044C94.1478 269.197 94.2901 266.639 92.9522 264.735C91.6997 262.944 90.3048 260.216 90.0201 256.578C89.9063 255.299 89.3939 254.105 88.4829 253.224C87.3158 252.059 85.5509 250.553 83.4728 249.529C81.9641 248.819 80.1992 248.819 78.7189 249.558Z" fill="#F26522"/>
<path d="M84.7254 270.618C92.6106 267.548 85.2663 258.624 88.4545 253.281C87.2874 252.116 85.5225 250.609 83.4444 249.586C81.9642 248.847 80.1993 248.847 78.719 249.586C75.6731 251.093 69.2966 253.991 62.55 255.413C62.0376 255.526 61.5537 255.697 61.1267 255.924C61.1267 255.924 67.6171 254.588 71.8301 261.75C75.9862 268.884 76.8402 273.659 84.7254 270.618Z" fill="#F7941E"/>
<path d="M82.5049 267.264C84.3443 267.264 85.8355 265.775 85.8355 263.939C85.8355 262.102 84.3443 260.614 82.5049 260.614C80.6655 260.614 79.1743 262.102 79.1743 263.939C79.1743 265.775 80.6655 267.264 82.5049 267.264Z" fill="#E6E7E8"/>
<path d="M82.5048 266.156C83.7311 266.156 84.7252 265.163 84.7252 263.939C84.7252 262.715 83.7311 261.722 82.5048 261.722C81.2785 261.722 80.2844 262.715 80.2844 263.939C80.2844 265.163 81.2785 266.156 82.5048 266.156Z" fill="#414042"/>
<path d="M92.7244 271.073C93.4361 270.163 93.8062 269.083 93.8631 268.003C91.5858 270.248 87.6005 273.886 84.7254 275.165C80.4838 277.069 77.1533 271.726 68.7557 269.254C64.7134 268.06 61.6675 268.344 59.6179 268.941C60.5288 269.879 61.7814 270.476 63.1762 270.533C67.0761 270.76 73.5665 271.897 78.8897 276.671C80.5123 278.121 82.9035 278.405 84.8392 277.41C87.2019 276.245 90.2479 274.256 92.7244 271.073Z" fill="#DE5426"/>
</g>
<g filter="url(#filter4_f_4_187)">
<path d="M739.45 60.9001C739.45 60.9001 737.742 59.9338 736.774 57.2906C735.807 54.6474 731.622 54.2496 729.145 56.3243C726.669 58.4275 715.026 58.7969 710.244 60.9001C705.461 63.0032 696.722 63.7706 697.007 69.0853C697.291 74.4001 701.675 75.1959 702.415 73.4622C703.184 71.7569 712.379 74.9969 714.941 76.9011C717.503 78.8053 725.331 83.7506 731.821 82.2443C738.312 80.738 734.696 76.1338 735.437 73.8601C736.234 71.558 742.126 64.5096 739.45 60.9001Z" fill="#D95D98"/>
<path d="M727.494 62.6619C722.427 60.0756 713.774 61.6672 707.454 61.923C702.7 63.4009 696.807 64.7082 697.035 69.1135C697.291 74.4566 701.704 75.224 702.444 73.4903C702.444 73.4903 700.793 70.904 705.717 68.7724C710.642 66.6409 712.179 72.9219 720.008 74.8261C727.836 76.7303 735.209 66.584 727.494 62.6619Z" fill="#F05D96"/>
<path d="M724.164 72.0693C726.003 72.0693 727.494 70.5806 727.494 68.7441C727.494 66.9076 726.003 65.4188 724.164 65.4188C722.324 65.4188 720.833 66.9076 720.833 68.7441C720.833 70.5806 722.324 72.0693 724.164 72.0693Z" fill="#E6E7E8"/>
<path d="M724.164 70.9609C725.39 70.9609 726.384 69.9684 726.384 68.7441C726.384 67.5197 725.39 66.5272 724.164 66.5272C722.937 66.5272 721.943 67.5197 721.943 68.7441C721.943 69.9684 722.937 70.9609 724.164 70.9609Z" fill="#414042"/>
<path d="M735.465 75.764C735.351 75.0535 735.294 74.3998 735.465 73.8598C736.234 71.5861 742.155 64.5377 739.479 60.8998C739.479 60.8998 737.771 59.9335 736.803 57.2904C736.205 55.6419 734.383 54.8746 732.476 55.0167C737.856 55.983 734.782 62.8893 733.358 65.3904C729.544 72.0693 735.465 75.764 735.465 75.764Z" fill="#DB3D78"/>
</g>
<g filter="url(#filter5_f_4_187)">
<path d="M738.492 180.054C738.492 180.054 736.3 173.773 730.351 173.091C724.401 172.409 714.097 175.848 706.752 174.171C699.379 172.494 695.024 176.729 696.22 191.564C697.415 206.4 697.871 212.426 706.951 213.989C716.032 215.552 731.063 209.299 736.187 201.654C741.311 194.009 739.773 182.498 738.492 180.054Z" fill="#42BFB9"/>
<path d="M713.1 200.517C725.796 201.512 726.508 188.04 727.903 182.896C728.558 180.452 727.163 176.558 725.512 173.176C719.705 173.744 712.36 175.45 706.724 174.171C706.211 174.057 705.699 173.972 705.215 173.915C706.012 175.933 706.411 178.775 705.699 182.697C703.763 193.156 700.404 199.551 713.1 200.517Z" fill="#5EC5BE"/>
<path d="M712.474 193.724C714.313 193.724 715.804 192.236 715.804 190.399C715.804 188.563 714.313 187.074 712.474 187.074C710.634 187.074 709.143 188.563 709.143 190.399C709.143 192.236 710.634 193.724 712.474 193.724Z" fill="#E6E7E8"/>
<path d="M712.474 192.616C713.7 192.616 714.694 191.624 714.694 190.399C714.694 189.175 713.7 188.182 712.474 188.182C711.248 188.182 710.253 189.175 710.253 190.399C710.253 191.624 711.248 192.616 712.474 192.616Z" fill="#414042"/>
<path d="M696.191 191.593C697.358 206.4 697.842 212.454 706.923 214.017C713.129 215.097 722.124 212.482 728.814 208.304C728.814 208.304 711.079 212.624 704.19 207.537C698.269 203.189 696.647 183.976 699.55 175.308C696.789 177.581 695.48 182.669 696.191 191.593Z" fill="#02ABA0"/>
</g>
<g filter="url(#filter6_f_4_187)">
<path d="M127.803 62.6665C127.803 62.6665 121.114 59.1991 117.868 52.918C114.623 46.637 109.272 41.8907 102.98 43.2265C96.6894 44.5622 93.4442 55.8738 97.458 55.8738C101.472 55.8738 100.902 59.3412 100.902 59.3412C100.902 59.3412 92.9033 66.3044 94.1274 72.7275C95.3515 79.1791 103.351 84.9201 110.894 82.6465C118.438 80.4296 138.478 69.2886 127.803 62.6665Z" fill="#F15D4F"/>
<path d="M114.652 73.6938C126.38 68.919 113.428 61.3022 109.101 58.4601C104.774 55.5896 98.6252 56.0159 98.6252 56.0159C101.358 56.6127 100.902 59.3696 100.902 59.3696C100.902 59.3696 98.2551 61.6717 96.2625 64.8264C99.65 64.7412 102.924 78.4401 114.652 73.6938Z" fill="#F47E69"/>
<path d="M112.431 70.9086C114.271 70.9086 115.762 69.4198 115.762 67.5833C115.762 65.7468 114.271 64.2581 112.431 64.2581C110.592 64.2581 109.101 65.7468 109.101 67.5833C109.101 69.4198 110.592 70.9086 112.431 70.9086Z" fill="#E6E7E8"/>
<path d="M112.431 69.8001C113.658 69.8001 114.652 68.8076 114.652 67.5833C114.652 66.359 113.658 65.3665 112.431 65.3665C111.205 65.3665 110.211 66.359 110.211 67.5833C110.211 68.8076 111.205 69.8001 112.431 69.8001Z" fill="#414042"/>
<path d="M127.803 62.6664C127.803 62.6664 124.672 61.0464 121.683 58.0054C121.683 58.0054 124.302 62.0412 126.408 64.2296C128.515 66.418 129.938 69.2033 119.463 76.138C108.958 83.0727 97.6858 80.7138 94.4121 73.7506C96.234 79.7475 103.778 84.8064 110.923 82.6464C118.438 80.4296 138.478 69.2885 127.803 62.6664Z" fill="#DB5447"/>
</g>
<path d="M605.928 140.953C605.928 140.953 607.953 139.903 608.935 138.002C609.917 136.101 611.537 134.664 613.442 135.069C615.346 135.473 616.328 138.897 615.113 138.897C613.898 138.897 614.071 139.946 614.071 139.946C614.071 139.946 616.492 142.054 616.121 143.998C615.751 145.951 613.33 147.689 611.046 147.001C608.763 146.33 602.697 142.957 605.928 140.953Z" fill="#F15D4F"/>
<path d="M609.909 144.291C606.359 142.846 610.279 140.54 611.589 139.68C612.899 138.811 614.76 138.94 614.76 138.94C613.933 139.121 614.071 139.955 614.071 139.955C614.071 139.955 614.872 140.652 615.475 141.607C614.45 141.581 613.459 145.728 609.909 144.291Z" fill="#F47E69"/>
<path d="M610.581 143.448C610.024 143.448 609.573 142.997 609.573 142.441C609.573 141.885 610.024 141.435 610.581 141.435C611.138 141.435 611.589 141.885 611.589 142.441C611.589 142.997 611.138 143.448 610.581 143.448Z" fill="#E6E7E8"/>
<path d="M610.581 143.112C610.21 143.112 609.909 142.812 609.909 142.441C609.909 142.071 610.21 141.77 610.581 141.77C610.952 141.77 611.253 142.071 611.253 142.441C611.253 142.812 610.952 143.112 610.581 143.112Z" fill="#414042"/>
<path d="M605.928 140.953C605.928 140.953 606.876 140.463 607.78 139.542C607.78 139.542 606.988 140.764 606.35 141.426C605.712 142.088 605.282 142.932 608.453 145.031C611.632 147.13 615.044 146.416 616.035 144.308C615.484 146.123 613.2 147.655 611.037 147.001C608.763 146.33 602.697 142.957 605.928 140.953Z" fill="#DB5447"/>
<g filter="url(#filter7_f_4_187)">
<path d="M48.491 133.438C48.491 133.438 46.5553 131.335 42.0006 131.534C37.446 131.733 32.5782 128.976 30.1871 125.423C26.6287 120.165 9.37805 123.519 12.6232 134.944C15.8684 146.37 9.00798 151.144 8.04012 161.234C7.07226 171.323 25.0346 178.002 29.2192 169.249C33.4038 160.495 36.8767 150.007 44.1926 146.569C51.5369 143.158 53.8427 139.549 48.491 133.438Z" fill="#2E95D2"/>
<path d="M25.177 140.97C17.2348 140.97 14.1889 140.629 12.7656 135.513C15.6407 146.569 8.97952 151.343 8.04013 161.262C7.95473 162.087 8.01166 162.854 8.15399 163.621C9.20725 162.797 10.8298 161.916 13.3918 161.149C20.3946 159.045 25.4616 158.477 29.7031 153.532C33.9446 148.587 33.3753 140.97 25.177 140.97Z" fill="#40A3DB"/>
<path d="M26.6004 150.576C28.4398 150.576 29.9309 149.087 29.9309 147.251C29.9309 145.414 28.4398 143.925 26.6004 143.925C24.7609 143.925 23.2698 145.414 23.2698 147.251C23.2698 149.087 24.7609 150.576 26.6004 150.576Z" fill="#E6E7E8"/>
<path d="M26.6003 149.467C27.8266 149.467 28.8207 148.475 28.8207 147.251C28.8207 146.026 27.8266 145.034 26.6003 145.034C25.374 145.034 24.3799 146.026 24.3799 147.251C24.3799 148.475 25.374 149.467 26.6003 149.467Z" fill="#414042"/>
<path d="M30.9556 135.513C30.8986 138.866 37.6452 142.362 43.3385 131.562C42.9115 131.534 42.4845 131.534 42.0006 131.534C37.4459 131.733 32.5782 128.976 30.187 125.423C30.1585 125.452 31.0125 132.159 30.9556 135.513Z" fill="#40A3DB"/>
<path d="M44.1925 146.597C50.996 143.414 53.4441 140.089 49.5442 134.774C49.8858 137.104 49.8573 139.776 48.434 141.339C45.5589 144.579 39.8371 143.272 35.4533 150.604C31.0694 157.937 28.3936 167.06 23.2411 169.078C20.3945 170.186 15.726 170.073 12.0823 169.732C17.4055 174.08 26.3725 175.132 29.1906 169.277C33.4037 160.495 36.8481 150.007 44.1925 146.597Z" fill="#1B86C8"/>
</g>
<defs>
<filter id="filter0_f_4_187" x="550" y="185" width="49.1013" height="73.4971" filterUnits="userSpaceOnUse" color-interpolation-filters="sRGB">
<feFlood flood-opacity="0" result="BackgroundImageFix"/>
<feBlend mode="normal" in="SourceGraphic" in2="BackgroundImageFix" result="shape"/>
<feGaussianBlur stdDeviation="1" result="effect1_foregroundBlur_4_187"/>
</filter>
<filter id="filter1_f_4_187" x="190" y="142" width="57.1355" height="47.7843" filterUnits="userSpaceOnUse" color-interpolation-filters="sRGB">
<feFlood flood-opacity="0" result="BackgroundImageFix"/>
<feBlend mode="normal" in="SourceGraphic" in2="BackgroundImageFix" result="shape"/>
<feGaussianBlur stdDeviation="1" result="effect1_foregroundBlur_4_187"/>
</filter>
<filter id="filter2_f_4_187" x="545" y="63" width="51.8125" height="46.7817" filterUnits="userSpaceOnUse" color-interpolation-filters="sRGB">
<feFlood flood-opacity="0" result="BackgroundImageFix"/>
<feBlend mode="normal" in="SourceGraphic" in2="BackgroundImageFix" result="shape"/>
<feGaussianBlur stdDeviation="2" result="effect1_foregroundBlur_4_187"/>
</filter>
<filter id="filter3_f_4_187" x="57" y="248" width="37.8784" height="30.9976" filterUnits="userSpaceOnUse" color-interpolation-filters="sRGB">
<feFlood flood-opacity="0" result="BackgroundImageFix"/>
<feBlend mode="normal" in="SourceGraphic" in2="BackgroundImageFix" result="shape"/>
<feGaussianBlur stdDeviation="0.5" result="effect1_foregroundBlur_4_187"/>
</filter>
<filter id="filter4_f_4_187" x="695" y="53" width="47.1685" height="31.5255" filterUnits="userSpaceOnUse" color-interpolation-filters="sRGB">
<feFlood flood-opacity="0" result="BackgroundImageFix"/>
<feBlend mode="normal" in="SourceGraphic" in2="BackgroundImageFix" result="shape"/>
<feGaussianBlur stdDeviation="1" result="effect1_foregroundBlur_4_187"/>
</filter>
<filter id="filter5_f_4_187" x="690" y="167" width="55.7502" height="53.261" filterUnits="userSpaceOnUse" color-interpolation-filters="sRGB">
<feFlood flood-opacity="0" result="BackgroundImageFix"/>
<feBlend mode="normal" in="SourceGraphic" in2="BackgroundImageFix" result="shape"/>
<feGaussianBlur stdDeviation="3" result="effect1_foregroundBlur_4_187"/>
</filter>
<filter id="filter6_f_4_187" x="91" y="40" width="42.8689" height="46.1545" filterUnits="userSpaceOnUse" color-interpolation-filters="sRGB">
<feFlood flood-opacity="0" result="BackgroundImageFix"/>
<feBlend mode="normal" in="SourceGraphic" in2="BackgroundImageFix" result="shape"/>
<feGaussianBlur stdDeviation="1.5" result="effect1_foregroundBlur_4_187"/>
</filter>
<filter id="filter7_f_4_187" x="7.25" y="122.25" width="44.9194" height="51.8337" filterUnits="userSpaceOnUse" color-interpolation-filters="sRGB">
<feFlood flood-opacity="0" result="BackgroundImageFix"/>
<feBlend mode="normal" in="SourceGraphic" in2="BackgroundImageFix" result="shape"/>
<feGaussianBlur stdDeviation="0.375" result="effect1_foregroundBlur_4_187"/>
</filter>
</defs>
</svg>
