<svg width="752" height="317" viewBox="0 0 752 317" fill="none" xmlns="http://www.w3.org/2000/svg">
<path d="M366.9 178.459C366.9 178.459 358.312 165.432 366.623 143.959C374.935 122.485 393.378 110.169 397.415 112.222C401.452 114.274 395.832 127.261 403.233 134.603C410.634 141.946 408.655 140.485 403.549 153.59C398.444 166.735 399.315 174.827 387.006 177.946C374.697 181.064 371.056 183.827 366.9 178.459Z" fill="#4EBA6E"/>
<path d="M394.17 126.235C387.402 134.13 369.671 139.774 373.589 154.893C377.507 170.011 388.629 174.314 392.745 162.274C396.821 150.235 402.402 136.696 405.884 137.248C405.212 136.498 404.341 135.63 403.272 134.603C398.206 129.59 399.235 121.932 399.077 116.919C398.84 118.893 397.771 122.011 394.17 126.235Z" fill="#75C485"/>
<path d="M384.236 156.432C386.793 156.432 388.866 154.365 388.866 151.814C388.866 149.263 386.793 147.196 384.236 147.196C381.678 147.196 379.605 149.263 379.605 151.814C379.605 154.365 381.678 156.432 384.236 156.432Z" fill="#E6E7E8"/>
<path d="M384.235 154.893C385.94 154.893 387.323 153.514 387.323 151.814C387.323 150.113 385.94 148.735 384.235 148.735C382.531 148.735 381.148 150.113 381.148 151.814C381.148 153.514 382.531 154.893 384.235 154.893Z" fill="#414042"/>
<path d="M536.785 114.434C536.785 114.434 546.323 108.079 548.46 96.7105C550.597 85.3421 547.114 77.1315 544.225 76.3421C541.297 75.5526 535.479 78.7105 533.341 77.6842C531.204 76.6184 529.819 72.0394 522.378 72.0394C514.938 72.0394 510.268 82.8552 507.854 83.8421C505.479 84.8289 496.851 80.7236 496.099 83.8421C495.466 86.5657 497.642 104.526 509.318 110.25C511.613 111.395 514.423 110.447 515.571 108.158C516.561 106.184 518.46 104.132 521.983 104.132C528.83 104.053 520.875 120.513 536.785 114.434Z" fill="#F8BE37"/>
<path d="M533.342 77.6447C531.204 76.5789 529.819 72 522.379 72C514.938 72 510.268 82.8158 507.854 83.8026C507.339 84 506.587 84 505.637 83.8816C506.627 84.0395 510.347 84.9474 514.344 89.25C518.975 94.2632 521.389 98.9605 528.117 97.1053C538.012 94.3816 527.484 81.6316 534.925 78.1579C535.202 78.0395 535.439 77.8816 535.677 77.7632C534.727 77.8816 533.896 77.921 533.342 77.6447Z" fill="#FFCE4B"/>
<path d="M525.07 91.8947C527.627 91.8947 529.7 89.8269 529.7 87.2763C529.7 84.7256 527.627 82.6578 525.07 82.6578C522.512 82.6578 520.439 84.7256 520.439 87.2763C520.439 89.8269 522.512 91.8947 525.07 91.8947Z" fill="#E6E7E8"/>
<path d="M525.07 90.3552C526.775 90.3552 528.157 88.9767 528.157 87.2762C528.157 85.5758 526.775 84.1973 525.07 84.1973C523.365 84.1973 521.983 85.5758 521.983 87.2762C521.983 88.9767 523.365 90.3552 525.07 90.3552Z" fill="#414042"/>
<path d="M546.521 78.3948C546.837 85.0658 546.64 96.4737 542.009 101.921C535.241 109.855 530.967 113.882 528.869 108.987C526.772 104.053 524.437 98.25 517.51 105.671C518.579 104.763 520.043 104.092 522.022 104.092C528.869 104.092 520.875 120.513 536.824 114.434C536.824 114.434 546.363 108.079 548.5 96.7106C550.043 88.3027 548.539 81.6316 546.521 78.3948Z" fill="#F8B32B"/>
<path d="M303.095 47.4856C303.095 47.4856 304.44 40.0646 314.493 37.4198C324.546 34.7751 342.633 34.7751 345.007 41.1303C347.382 47.4856 348.411 71.5646 338.081 74.2093C327.752 76.854 325.377 62.5646 321.657 59.6435C317.976 56.7619 300.166 59.4067 303.095 47.4856Z" fill="#955BA5"/>
<path d="M333.451 55.1435C336.008 55.1435 338.081 53.0757 338.081 50.525C338.081 47.9744 336.008 45.9066 333.451 45.9066C330.893 45.9066 328.82 47.9744 328.82 50.525C328.82 53.0757 330.893 55.1435 333.451 55.1435Z" fill="#E6E7E8"/>
<path d="M333.451 53.6039C335.156 53.6039 336.538 52.2254 336.538 50.525C336.538 48.8245 335.156 47.446 333.451 47.446C331.746 47.446 330.364 48.8245 330.364 50.525C330.364 52.2254 331.746 53.6039 333.451 53.6039Z" fill="#414042"/>
<path d="M345.838 62.4067C341.841 69.433 335.627 70.8935 333.451 64.933C330.522 56.9988 326.05 54.0777 314.374 53.5646C308.636 53.3277 305.034 51.8277 302.778 50.3672C303.293 58.933 318.292 56.9988 321.657 59.6435C325.377 62.5646 327.752 76.854 338.081 74.2093C342.435 73.104 344.77 68.2093 345.838 62.4067Z" fill="#884B9D"/>
<path d="M199.719 112.558C196.673 114.064 190.297 116.963 183.55 118.384C181.387 118.839 179.707 120.516 179.337 122.704C179.024 124.466 178.853 126.683 179.166 128.957C179.508 131.486 181.614 133.39 184.176 133.533C188.076 133.76 194.566 134.897 199.89 139.672C201.512 141.121 203.904 141.405 205.839 140.41C208.202 139.217 211.248 137.227 213.724 134.044C215.148 132.197 215.29 129.639 213.952 127.735C212.7 125.944 211.305 123.216 211.02 119.578C210.906 118.299 210.394 117.105 209.483 116.224C208.316 115.059 206.551 113.553 204.473 112.529C202.964 111.819 201.199 111.819 199.719 112.558Z" fill="#F26522"/>
<path d="M205.725 133.618C213.611 130.548 206.266 121.624 209.455 116.281C208.287 115.116 206.522 113.609 204.444 112.586C202.964 111.847 201.199 111.847 199.719 112.586C196.673 114.093 190.297 116.991 183.55 118.413C183.038 118.526 182.554 118.697 182.127 118.924C182.127 118.924 188.617 117.588 192.83 124.75C196.986 131.884 197.84 136.659 205.725 133.618Z" fill="#F7941E"/>
<path d="M203.505 130.264C205.344 130.264 206.835 128.775 206.835 126.939C206.835 125.102 205.344 123.614 203.505 123.614C201.665 123.614 200.174 125.102 200.174 126.939C200.174 128.775 201.665 130.264 203.505 130.264Z" fill="#E6E7E8"/>
<path d="M203.505 129.156C204.731 129.156 205.725 128.163 205.725 126.939C205.725 125.715 204.731 124.722 203.505 124.722C202.279 124.722 201.284 125.715 201.284 126.939C201.284 128.163 202.279 129.156 203.505 129.156Z" fill="#414042"/>
<path d="M213.724 134.073C214.436 133.163 214.806 132.083 214.863 131.003C212.586 133.248 208.6 136.886 205.725 138.165C201.484 140.069 198.153 134.726 189.756 132.254C185.713 131.06 182.668 131.344 180.618 131.941C181.529 132.879 182.781 133.476 184.176 133.533C188.076 133.76 194.566 134.897 199.89 139.671C201.512 141.121 203.904 141.405 205.839 140.41C208.202 139.245 211.248 137.256 213.724 134.073Z" fill="#DE5426"/>
<path d="M560.45 160.9C560.45 160.9 558.742 159.934 557.774 157.291C556.807 154.647 552.622 154.25 550.145 156.324C547.669 158.427 536.026 158.797 531.244 160.9C526.461 163.003 517.722 163.771 518.007 169.085C518.291 174.4 522.675 175.196 523.415 173.462C524.184 171.757 533.379 174.997 535.941 176.901C538.503 178.805 546.331 183.751 552.821 182.244C559.312 180.738 555.696 176.134 556.437 173.86C557.234 171.558 563.126 164.51 560.45 160.9Z" fill="#D95D98"/>
<path d="M548.494 162.662C543.427 160.076 534.774 161.667 528.454 161.923C523.7 163.401 517.807 164.708 518.035 169.113C518.291 174.457 522.704 175.224 523.444 173.49C523.444 173.49 521.793 170.904 526.717 168.772C531.642 166.641 533.179 172.922 541.008 174.826C548.836 176.73 556.209 166.584 548.494 162.662Z" fill="#F05D96"/>
<path d="M545.164 172.069C547.003 172.069 548.494 170.581 548.494 168.744C548.494 166.908 547.003 165.419 545.164 165.419C543.324 165.419 541.833 166.908 541.833 168.744C541.833 170.581 543.324 172.069 545.164 172.069Z" fill="#E6E7E8"/>
<path d="M545.164 170.961C546.39 170.961 547.384 169.968 547.384 168.744C547.384 167.52 546.39 166.527 545.164 166.527C543.937 166.527 542.943 167.52 542.943 168.744C542.943 169.968 543.937 170.961 545.164 170.961Z" fill="#414042"/>
<path d="M556.465 175.764C556.351 175.054 556.294 174.4 556.465 173.86C557.234 171.586 563.155 164.538 560.479 160.9C560.479 160.9 558.771 159.934 557.803 157.29C557.205 155.642 555.383 154.875 553.476 155.017C558.856 155.983 555.782 162.889 554.358 165.39C550.544 172.069 556.465 175.764 556.465 175.764Z" fill="#DB3D78"/>
<path d="M315.492 122.054C315.492 122.054 313.3 115.773 307.351 115.091C301.401 114.409 291.097 117.848 283.752 116.171C276.379 114.494 272.024 118.729 273.22 133.564C274.415 148.4 274.871 154.426 283.951 155.989C293.032 157.552 308.063 151.299 313.187 143.654C318.311 136.009 316.773 124.498 315.492 122.054Z" fill="#42BFB9"/>
<path d="M290.1 142.517C302.796 143.512 303.508 130.04 304.903 124.896C305.558 122.452 304.163 118.558 302.512 115.176C296.705 115.744 289.36 117.45 283.724 116.171C283.211 116.057 282.699 115.972 282.215 115.915C283.012 117.933 283.411 120.775 282.699 124.697C280.763 135.156 277.404 141.551 290.1 142.517Z" fill="#5EC5BE"/>
<path d="M289.474 135.724C291.313 135.724 292.804 134.236 292.804 132.399C292.804 130.563 291.313 129.074 289.474 129.074C287.634 129.074 286.143 130.563 286.143 132.399C286.143 134.236 287.634 135.724 289.474 135.724Z" fill="#E6E7E8"/>
<path d="M289.474 134.616C290.7 134.616 291.694 133.624 291.694 132.399C291.694 131.175 290.7 130.182 289.474 130.182C288.248 130.182 287.253 131.175 287.253 132.399C287.253 133.624 288.248 134.616 289.474 134.616Z" fill="#414042"/>
<path d="M273.191 133.593C274.358 148.4 274.842 154.454 283.923 156.017C290.129 157.097 299.124 154.482 305.814 150.304C305.814 150.304 288.079 154.624 281.19 149.537C275.269 145.189 273.647 125.976 276.55 117.308C273.789 119.581 272.48 124.669 273.191 133.593Z" fill="#02ABA0"/>
<path d="M178.803 50.6665C178.803 50.6665 172.114 47.1991 168.868 40.918C165.623 34.637 160.272 29.8907 153.98 31.2265C147.689 32.5622 144.444 43.8738 148.458 43.8738C152.472 43.8738 151.902 47.3412 151.902 47.3412C151.902 47.3412 143.903 54.3044 145.127 60.7275C146.351 67.1791 154.351 72.9201 161.894 70.6465C169.438 68.4296 189.478 57.2886 178.803 50.6665Z" fill="#F15D4F"/>
<path d="M165.652 61.6938C177.38 56.919 164.428 49.3022 160.101 46.4601C155.774 43.5896 149.625 44.0159 149.625 44.0159C152.358 44.6127 151.902 47.3696 151.902 47.3696C151.902 47.3696 149.255 49.6717 147.262 52.8264C150.65 52.7412 153.924 66.4401 165.652 61.6938Z" fill="#F47E69"/>
<path d="M163.431 58.9086C165.271 58.9086 166.762 57.4198 166.762 55.5833C166.762 53.7468 165.271 52.2581 163.431 52.2581C161.592 52.2581 160.101 53.7468 160.101 55.5833C160.101 57.4198 161.592 58.9086 163.431 58.9086Z" fill="#E6E7E8"/>
<path d="M163.431 57.8001C164.658 57.8001 165.652 56.8076 165.652 55.5833C165.652 54.359 164.658 53.3665 163.431 53.3665C162.205 53.3665 161.211 54.359 161.211 55.5833C161.211 56.8076 162.205 57.8001 163.431 57.8001Z" fill="#414042"/>
<path d="M178.803 50.6664C178.803 50.6664 175.672 49.0464 172.683 46.0054C172.683 46.0054 175.302 50.0412 177.408 52.2296C179.515 54.418 180.938 57.2033 170.463 64.138C159.958 71.0727 148.686 68.7138 145.412 61.7506C147.234 67.7475 154.778 72.8064 161.923 70.6464C169.438 68.4296 189.478 57.2885 178.803 50.6664Z" fill="#DB5447"/>
<path d="M677.491 83.438C677.491 83.438 675.555 81.3349 671.001 81.5338C666.446 81.7328 661.578 78.9759 659.187 75.4233C655.629 70.1654 638.378 73.5191 641.623 84.9443C644.868 96.3696 638.008 101.144 637.04 111.234C636.072 121.323 654.035 128.002 658.219 119.249C662.404 110.495 665.877 100.007 673.193 96.5685C680.537 93.158 682.843 89.5486 677.491 83.438Z" fill="#2E95D2"/>
<path d="M654.177 90.9697C646.235 90.9697 643.189 90.6286 641.766 85.5128C644.641 96.5686 637.98 101.343 637.04 111.262C636.955 112.087 637.012 112.854 637.154 113.621C638.207 112.797 639.83 111.916 642.392 111.149C649.395 109.045 654.462 108.477 658.703 103.532C662.945 98.5865 662.375 90.9697 654.177 90.9697Z" fill="#40A3DB"/>
<path d="M655.6 100.576C657.44 100.576 658.931 99.0872 658.931 97.2507C658.931 95.4142 657.44 93.9254 655.6 93.9254C653.761 93.9254 652.27 95.4142 652.27 97.2507C652.27 99.0872 653.761 100.576 655.6 100.576Z" fill="#E6E7E8"/>
<path d="M655.6 99.4675C656.827 99.4675 657.821 98.475 657.821 97.2507C657.821 96.0263 656.827 95.0338 655.6 95.0338C654.374 95.0338 653.38 96.0263 653.38 97.2507C653.38 98.475 654.374 99.4675 655.6 99.4675Z" fill="#414042"/>
<path d="M659.956 85.5128C659.899 88.8665 666.645 92.3623 672.338 81.5623C671.911 81.5339 671.484 81.5339 671.001 81.5339C666.446 81.7328 661.578 78.976 659.187 75.4233C659.159 75.4518 660.012 82.1591 659.956 85.5128Z" fill="#40A3DB"/>
<path d="M673.192 96.597C679.996 93.4138 682.444 90.0885 678.544 84.7738C678.886 87.1043 678.857 89.7759 677.434 91.3391C674.559 94.5791 668.837 93.2717 664.453 100.604C660.069 107.937 657.394 117.06 652.241 119.078C649.394 120.186 644.726 120.073 641.082 119.732C646.406 124.08 655.372 125.132 658.191 119.277C662.404 110.495 665.848 100.007 673.192 96.597Z" fill="#1B86C8"/>
</svg>
