<svg xmlns:xlink="http://www.w3.org/1999/xlink" width="495.003" xmlns="http://www.w3.org/2000/svg" height="495.003" id="screenshot-5630183a-3235-80f9-8001-7df8d1c7da30" viewBox="0 0 495.003 495.003" style="-webkit-print-color-adjust: exact;" fill="none" version="1.1"><g xmlns:xlink="http://www.w3.org/1999/xlink" xml:space="preserve" x="0px" id="shape-5630183a-3235-80f9-8001-7df8d1c7da30" style="fill: rgb(0, 0, 0);" ry="0" rx="0" y="0px" version="1.1"><g id="shape-5630183a-3235-80f9-8001-7df8d1c85b7b" rx="0" ry="0" style="fill: rgb(0, 0, 0);"><g id="shape-5630183a-3235-80f9-8001-7df8d1c8cbed"><g id="fills-5630183a-3235-80f9-8001-7df8d1c8cbed"><path rx="0" ry="0" d="M164.711,456.687C164.711,459.653,166.358,462.373,168.977,463.759C171.594,465.144,174.776,464.966,177.222,463.291L232.312,425.675L164.712,393.455L164.711,456.687ZZ" style="fill: rgb(255, 255, 255); fill-opacity: 1;"/></g></g><g id="shape-5630183a-3235-80f9-8001-7df8d1c9c008"><g id="fills-5630183a-3235-80f9-8001-7df8d1c9c008"><path rx="0" ry="0" d="M492.431,32.443C490.918,31.048,488.965,30.318,486.991,30.318C485.801,30.318,484.614,30.582,483.491,31.134L7.905,264.422C3.044,266.811,-0.032,271.775,0.001,277.205C0.034,282.628,3.162,287.558,8.058,289.894L133.4,349.618L384.02,143.628L164.455,364.414L320.6,438.814C322.518,439.733,324.612,440.19,326.684,440.19C328.452,440.19,330.203,439.868,331.87,439.213C335.507,437.775,338.397,434.895,339.84,431.257L494.436,41.257C495.66,38.188,494.862,34.679,492.431,32.443ZZ" style="fill: rgb(255, 255, 255); fill-opacity: 1;"/></g></g></g><g id="shape-5630183a-3235-80f9-8001-7df8d1ca37e4" rx="0" ry="0" style="fill: rgb(0, 0, 0);"/><g id="shape-5630183a-3235-80f9-8001-7df8d1ca37e5" rx="0" ry="0" style="fill: rgb(0, 0, 0);"/><g id="shape-5630183a-3235-80f9-8001-7df8d1ca62b0" rx="0" ry="0" style="fill: rgb(0, 0, 0);"/><g id="shape-5630183a-3235-80f9-8001-7df8d1ca62b1" rx="0" ry="0" style="fill: rgb(0, 0, 0);"/><g id="shape-5630183a-3235-80f9-8001-7df8d1cab4e5" rx="0" ry="0" style="fill: rgb(0, 0, 0);"/><g id="shape-5630183a-3235-80f9-8001-7df8d1cab4e6" rx="0" ry="0" style="fill: rgb(0, 0, 0);"/><g id="shape-5630183a-3235-80f9-8001-7df8d1cb31eb" rx="0" ry="0" style="fill: rgb(0, 0, 0);"/><g id="shape-5630183a-3235-80f9-8001-7df8d1cb31ec" rx="0" ry="0" style="fill: rgb(0, 0, 0);"/><g id="shape-5630183a-3235-80f9-8001-7df8d1cb5abb" rx="0" ry="0" style="fill: rgb(0, 0, 0);"/><g id="shape-5630183a-3235-80f9-8001-7df8d1cb5abc" rx="0" ry="0" style="fill: rgb(0, 0, 0);"/><g id="shape-5630183a-3235-80f9-8001-7df8d1cb9209" rx="0" ry="0" style="fill: rgb(0, 0, 0);"/><g id="shape-5630183a-3235-80f9-8001-7df8d1cb920a" rx="0" ry="0" style="fill: rgb(0, 0, 0);"/><g id="shape-5630183a-3235-80f9-8001-7df8d1cbf21d" rx="0" ry="0" style="fill: rgb(0, 0, 0);"/><g id="shape-5630183a-3235-80f9-8001-7df8d1cbf21e" rx="0" ry="0" style="fill: rgb(0, 0, 0);"/><g id="shape-5630183a-3235-80f9-8001-7df8d1cc3136" rx="0" ry="0" style="fill: rgb(0, 0, 0);"/></g></svg>